G04*
G04 #@! TF.GenerationSoftware,Altium Limited,Altium Designer,21.6.4 (81)*
G04*
G04 Layer_Color=8388736*
%FSLAX25Y25*%
%MOIN*%
G70*
G04*
G04 #@! TF.SameCoordinates,DCC330B1-B26A-4D2F-83E0-9CF8D3C12DAD*
G04*
G04*
G04 #@! TF.FilePolarity,Negative*
G04*
G01*
G75*
%ADD43C,0.07500*%
%ADD44R,0.06318X0.07106*%
%ADD45R,0.07106X0.06318*%
%ADD46R,0.03600X0.09200*%
%ADD47R,0.09200X0.04350*%
%ADD48R,0.09224X0.04350*%
%ADD49R,0.09074X0.03365*%
%ADD50O,0.02578X0.07302*%
%ADD51R,0.04153X0.05137*%
%ADD52C,0.05200*%
G04:AMPARAMS|DCode=53|XSize=82.87mil|YSize=31.69mil|CornerRadius=0mil|HoleSize=0mil|Usage=FLASHONLY|Rotation=225.000|XOffset=0mil|YOffset=0mil|HoleType=Round|Shape=Rectangle|*
%AMROTATEDRECTD53*
4,1,4,0.01810,0.04050,0.04050,0.01810,-0.01810,-0.04050,-0.04050,-0.01810,0.01810,0.04050,0.0*
%
%ADD53ROTATEDRECTD53*%

G04:AMPARAMS|DCode=54|XSize=82.87mil|YSize=31.69mil|CornerRadius=0mil|HoleSize=0mil|Usage=FLASHONLY|Rotation=315.000|XOffset=0mil|YOffset=0mil|HoleType=Round|Shape=Rectangle|*
%AMROTATEDRECTD54*
4,1,4,-0.04050,0.01810,-0.01810,0.04050,0.04050,-0.01810,0.01810,-0.04050,-0.04050,0.01810,0.0*
%
%ADD54ROTATEDRECTD54*%

%ADD55O,0.09468X0.03562*%
G04:AMPARAMS|DCode=56|XSize=63.18mil|YSize=71.06mil|CornerRadius=0mil|HoleSize=0mil|Usage=FLASHONLY|Rotation=135.000|XOffset=0mil|YOffset=0mil|HoleType=Round|Shape=Rectangle|*
%AMROTATEDRECTD56*
4,1,4,0.04746,0.00278,-0.00278,-0.04746,-0.04746,-0.00278,0.00278,0.04746,0.04746,0.00278,0.0*
%
%ADD56ROTATEDRECTD56*%

%ADD57R,0.09200X0.03600*%
G04:AMPARAMS|DCode=58|XSize=63.18mil|YSize=71.06mil|CornerRadius=0mil|HoleSize=0mil|Usage=FLASHONLY|Rotation=45.000|XOffset=0mil|YOffset=0mil|HoleType=Round|Shape=Rectangle|*
%AMROTATEDRECTD58*
4,1,4,0.00278,-0.04746,-0.04746,0.00278,-0.00278,0.04746,0.04746,-0.00278,0.00278,-0.04746,0.0*
%
%ADD58ROTATEDRECTD58*%

%ADD59R,0.07302X0.06318*%
%ADD60R,0.06318X0.07106*%
%ADD61R,0.09074X0.03956*%
G04:AMPARAMS|DCode=62|XSize=82.87mil|YSize=106.49mil|CornerRadius=0mil|HoleSize=0mil|Usage=FLASHONLY|Rotation=315.000|XOffset=0mil|YOffset=0mil|HoleType=Round|Shape=Rectangle|*
%AMROTATEDRECTD62*
4,1,4,-0.06695,-0.00835,0.00835,0.06695,0.06695,0.00835,-0.00835,-0.06695,-0.06695,-0.00835,0.0*
%
%ADD62ROTATEDRECTD62*%

%ADD63R,0.07499X0.03562*%
%ADD64R,0.02696X0.06909*%
G04:AMPARAMS|DCode=65|XSize=31.69mil|YSize=69.09mil|CornerRadius=0mil|HoleSize=0mil|Usage=FLASHONLY|Rotation=225.000|XOffset=0mil|YOffset=0mil|HoleType=Round|Shape=Round|*
%AMOVALD65*
21,1,0.03740,0.03169,0.00000,0.00000,315.0*
1,1,0.03169,-0.01322,0.01322*
1,1,0.03169,0.01322,-0.01322*
%
%ADD65OVALD65*%

G04:AMPARAMS|DCode=66|XSize=31.69mil|YSize=69.09mil|CornerRadius=0mil|HoleSize=0mil|Usage=FLASHONLY|Rotation=315.000|XOffset=0mil|YOffset=0mil|HoleType=Round|Shape=Round|*
%AMOVALD66*
21,1,0.03740,0.03169,0.00000,0.00000,45.0*
1,1,0.03169,-0.01322,-0.01322*
1,1,0.03169,0.01322,0.01322*
%
%ADD66OVALD66*%

%ADD67O,0.02696X0.06909*%
%ADD68R,0.07106X0.06318*%
%ADD69C,0.10400*%
%ADD70C,0.10700*%
%ADD71C,0.09074*%
%ADD72R,0.05924X0.05924*%
%ADD73C,0.05924*%
%ADD74C,0.08200*%
%ADD75R,0.08200X0.08200*%
%ADD76C,0.07106*%
%ADD77C,0.14980*%
%ADD78R,0.07106X0.07106*%
%ADD79R,0.05924X0.05924*%
%ADD80C,0.16948*%
%ADD81C,0.20885*%
G36*
X299868Y151830D02*
X299871Y151830D01*
X299904Y151824D01*
X299938Y151819D01*
X300002Y151800D01*
X300064Y151774D01*
X300097Y151756D01*
X300124Y151742D01*
X300179Y151703D01*
X300229Y151658D01*
X300229Y151658D01*
X302788Y149099D01*
X302833Y149048D01*
X302872Y148994D01*
X302904Y148934D01*
X302930Y148872D01*
X302949Y148808D01*
X302954Y148774D01*
X302960Y148741D01*
X302960Y148738D01*
X302964Y148674D01*
X302964Y148674D01*
Y145918D01*
X302964Y145918D01*
X302960Y145854D01*
X302960Y145851D01*
X302954Y145817D01*
X302949Y145784D01*
X302930Y145719D01*
X302904Y145657D01*
X302872Y145598D01*
X302833Y145543D01*
X302788Y145493D01*
X302788Y145493D01*
X300229Y142934D01*
X300229Y142934D01*
X300179Y142889D01*
X300124Y142850D01*
X300097Y142835D01*
X300064Y142817D01*
X300002Y142792D01*
X299938Y142773D01*
X299904Y142767D01*
X299871Y142762D01*
X299868Y142761D01*
X299804Y142758D01*
X299804Y142758D01*
X291536D01*
X291536Y142758D01*
X291472Y142761D01*
X291469Y142762D01*
X291436Y142767D01*
X291402Y142773D01*
X291338Y142792D01*
X291275Y142817D01*
X291243Y142835D01*
X291216Y142850D01*
X291161Y142889D01*
X291111Y142934D01*
X291111Y142934D01*
X288552Y145493D01*
X288507Y145543D01*
X288468Y145598D01*
X288436Y145657D01*
X288410Y145719D01*
X288391Y145784D01*
X288386Y145817D01*
X288380Y145851D01*
X288380Y145854D01*
X288376Y145918D01*
X288376Y145918D01*
Y148674D01*
X288376Y148674D01*
X288380Y148738D01*
X288380Y148741D01*
X288386Y148774D01*
X288391Y148808D01*
X288410Y148872D01*
X288436Y148934D01*
X288468Y148994D01*
X288507Y149048D01*
X288552Y149099D01*
X288552Y149099D01*
X291111Y151658D01*
X291111Y151658D01*
X291161Y151703D01*
X291216Y151742D01*
X291243Y151756D01*
X291275Y151774D01*
X291338Y151800D01*
X291402Y151819D01*
X291436Y151824D01*
X291469Y151830D01*
X291472Y151830D01*
X291536Y151834D01*
X291536Y151834D01*
X299804D01*
X299804Y151834D01*
X299868Y151830D01*
D02*
G37*
D43*
X143800Y264700D02*
D03*
X59504Y256105D02*
D03*
D44*
X249180Y109300D02*
D03*
X241700D02*
D03*
Y118800D02*
D03*
X249180D02*
D03*
X320840Y262400D02*
D03*
X313360D02*
D03*
X346797Y262400D02*
D03*
X354277D02*
D03*
X218880Y45700D02*
D03*
X211400D02*
D03*
X211360Y54900D02*
D03*
X218840D02*
D03*
X313360Y272600D02*
D03*
X320840D02*
D03*
X330240Y262400D02*
D03*
X337720D02*
D03*
X150300Y28578D02*
D03*
X142820D02*
D03*
X118700D02*
D03*
X126180D02*
D03*
X86884Y28694D02*
D03*
X94364D02*
D03*
X348591Y185638D02*
D03*
X356071D02*
D03*
X253707Y162092D02*
D03*
X93220Y304100D02*
D03*
X147826Y138643D02*
D03*
X155306D02*
D03*
X163418Y125459D02*
D03*
X170899D02*
D03*
X277040Y326100D02*
D03*
X269560D02*
D03*
X253760Y174400D02*
D03*
X261240D02*
D03*
X272460Y185600D02*
D03*
X279940D02*
D03*
X324920Y156000D02*
D03*
X317439D02*
D03*
X44120Y110500D02*
D03*
X214320Y257500D02*
D03*
Y248185D02*
D03*
X76980Y282542D02*
D03*
X261187Y162092D02*
D03*
X76980Y319300D02*
D03*
X112600Y304100D02*
D03*
X100700D02*
D03*
X337577Y272700D02*
D03*
X51600Y110500D02*
D03*
X221800Y257500D02*
D03*
Y248185D02*
D03*
X320840Y282400D02*
D03*
X313360D02*
D03*
X299410Y174000D02*
D03*
X291930D02*
D03*
X329900Y174100D02*
D03*
X337380D02*
D03*
X244454Y162092D02*
D03*
X236974D02*
D03*
X326341Y24494D02*
D03*
X333821D02*
D03*
X236960Y174400D02*
D03*
X244440D02*
D03*
X249140Y96900D02*
D03*
X241660D02*
D03*
X265860Y54984D02*
D03*
X273340D02*
D03*
X273340Y43600D02*
D03*
X265860D02*
D03*
X265920Y32600D02*
D03*
X273400D02*
D03*
X354277Y282400D02*
D03*
X346797D02*
D03*
X354277Y272700D02*
D03*
X346797D02*
D03*
X337577Y282400D02*
D03*
X330097D02*
D03*
X206260Y206800D02*
D03*
X213740D02*
D03*
X69500Y282542D02*
D03*
X206160Y218100D02*
D03*
X213640D02*
D03*
X249200Y128300D02*
D03*
X241720D02*
D03*
X330097Y272700D02*
D03*
X317320Y136600D02*
D03*
X324800D02*
D03*
X218960Y36300D02*
D03*
X211480D02*
D03*
X219000Y27100D02*
D03*
X211520D02*
D03*
X317439Y146150D02*
D03*
X324920D02*
D03*
X120080Y304100D02*
D03*
X69500Y319300D02*
D03*
X254140Y326100D02*
D03*
X246660D02*
D03*
X76981Y273010D02*
D03*
X69501D02*
D03*
X76981Y309714D02*
D03*
X69501D02*
D03*
D45*
X341200Y101200D02*
D03*
Y93720D02*
D03*
X65184Y37994D02*
D03*
Y45475D02*
D03*
X96684Y38394D02*
D03*
Y45875D02*
D03*
X128784Y38294D02*
D03*
Y45775D02*
D03*
X361016Y157800D02*
D03*
Y150320D02*
D03*
X219700Y73160D02*
D03*
Y80640D02*
D03*
X306200Y57280D02*
D03*
Y49800D02*
D03*
X306300Y41080D02*
D03*
Y33600D02*
D03*
X294616Y57280D02*
D03*
Y49800D02*
D03*
X294600Y41000D02*
D03*
Y33520D02*
D03*
X341200Y110600D02*
D03*
Y118080D02*
D03*
X249000Y80540D02*
D03*
Y73060D02*
D03*
X239300Y73120D02*
D03*
Y80600D02*
D03*
X229507Y80540D02*
D03*
Y73060D02*
D03*
X249007Y244911D02*
D03*
Y252391D02*
D03*
X361016Y133783D02*
D03*
Y141264D02*
D03*
X237400Y338760D02*
D03*
Y346240D02*
D03*
X286200Y338780D02*
D03*
Y346261D02*
D03*
X321560Y205600D02*
D03*
Y198120D02*
D03*
X307534D02*
D03*
Y205600D02*
D03*
X361100Y117300D02*
D03*
Y124780D02*
D03*
X337400Y198100D02*
D03*
Y205580D02*
D03*
X291700Y205540D02*
D03*
Y198060D02*
D03*
D46*
X317112Y118200D02*
D03*
X322112D02*
D03*
X327112D02*
D03*
X332112D02*
D03*
Y93200D02*
D03*
X327112D02*
D03*
X322112D02*
D03*
X317112D02*
D03*
X179500Y83800D02*
D03*
X159500D02*
D03*
X154500D02*
D03*
X149500D02*
D03*
X144500D02*
D03*
X164500D02*
D03*
X169500D02*
D03*
X174500D02*
D03*
X179500Y108800D02*
D03*
X174500D02*
D03*
X169500D02*
D03*
X164500D02*
D03*
X159500D02*
D03*
X154500D02*
D03*
X149500D02*
D03*
X144500D02*
D03*
X250600Y53300D02*
D03*
X245600D02*
D03*
X240600D02*
D03*
X235600D02*
D03*
Y28300D02*
D03*
X240600D02*
D03*
X245600D02*
D03*
X250600D02*
D03*
X282043Y119561D02*
D03*
X287043D02*
D03*
X292043D02*
D03*
X297043D02*
D03*
Y94561D02*
D03*
X292043D02*
D03*
X287043D02*
D03*
X282043D02*
D03*
D47*
X150400Y42000D02*
D03*
X138400Y38260D02*
D03*
X118408Y41960D02*
D03*
X106408Y38220D02*
D03*
X86795Y41960D02*
D03*
X74795Y38220D02*
D03*
D48*
X138400Y45740D02*
D03*
X106408Y45700D02*
D03*
X74795D02*
D03*
D49*
X122455Y74000D02*
D03*
Y79000D02*
D03*
Y84000D02*
D03*
Y89000D02*
D03*
Y94000D02*
D03*
Y99000D02*
D03*
Y104000D02*
D03*
Y119000D02*
D03*
Y124000D02*
D03*
Y129000D02*
D03*
Y134000D02*
D03*
Y139000D02*
D03*
Y144000D02*
D03*
X76156Y74000D02*
D03*
Y79000D02*
D03*
Y84000D02*
D03*
Y89000D02*
D03*
Y94000D02*
D03*
Y99000D02*
D03*
Y104000D02*
D03*
Y119000D02*
D03*
Y124000D02*
D03*
Y134000D02*
D03*
Y139000D02*
D03*
Y144000D02*
D03*
Y149000D02*
D03*
Y114000D02*
D03*
X122455Y149000D02*
D03*
Y109000D02*
D03*
X76156Y129000D02*
D03*
Y109000D02*
D03*
X122455Y114000D02*
D03*
D50*
X206950Y107261D02*
D03*
X204450D02*
D03*
X201950D02*
D03*
X199450D02*
D03*
X196950D02*
D03*
X219450D02*
D03*
Y127339D02*
D03*
X216950D02*
D03*
X214450D02*
D03*
X211950D02*
D03*
X209450D02*
D03*
X206950D02*
D03*
X204450D02*
D03*
X201950D02*
D03*
X199450D02*
D03*
X196950D02*
D03*
X216950Y107261D02*
D03*
X214450D02*
D03*
X211950D02*
D03*
X209450D02*
D03*
D51*
X306205Y120721D02*
D03*
Y135879D02*
D03*
Y89479D02*
D03*
Y74321D02*
D03*
D52*
X331000Y13400D02*
D03*
X361100Y94561D02*
D03*
X259900Y13300D02*
D03*
X250600Y13100D02*
D03*
X30906Y94400D02*
D03*
X284343Y51186D02*
D03*
X361100Y102400D02*
D03*
X274743Y288500D02*
D03*
X292657Y304030D02*
D03*
D53*
X163708Y235922D02*
D03*
X168163Y231468D02*
D03*
X172617Y227014D02*
D03*
X114990Y213930D02*
D03*
X117218Y211703D02*
D03*
X119445Y209475D02*
D03*
X121672Y207248D02*
D03*
X123899Y205021D02*
D03*
X126126Y202794D02*
D03*
X128353Y200567D02*
D03*
X130580Y198340D02*
D03*
X132807Y196113D02*
D03*
X135034Y193886D02*
D03*
X137262Y191659D02*
D03*
X152573Y247058D02*
D03*
X157027Y242604D02*
D03*
X161481Y238149D02*
D03*
X165936Y233695D02*
D03*
X170390Y229241D02*
D03*
X150346Y249285D02*
D03*
X154800Y244831D02*
D03*
X159254Y240376D02*
D03*
D54*
X150346Y191659D02*
D03*
X154800Y196113D02*
D03*
X159254Y200567D02*
D03*
X163708Y205021D02*
D03*
X168163Y209475D02*
D03*
X172617Y213930D02*
D03*
X114991Y227014D02*
D03*
X117218Y229241D02*
D03*
X119445Y231468D02*
D03*
X121672Y233695D02*
D03*
X123899Y235922D02*
D03*
X126126Y238149D02*
D03*
X128353Y240377D02*
D03*
X130580Y242604D02*
D03*
X132807Y244831D02*
D03*
X135034Y247058D02*
D03*
X137262Y249285D02*
D03*
X152573Y193886D02*
D03*
X157027Y198340D02*
D03*
X161481Y202794D02*
D03*
X165936Y207248D02*
D03*
X170390Y211702D02*
D03*
D55*
X226907Y189300D02*
D03*
X190293Y144300D02*
D03*
Y189300D02*
D03*
Y184300D02*
D03*
Y179300D02*
D03*
Y174300D02*
D03*
Y169300D02*
D03*
Y164300D02*
D03*
Y159300D02*
D03*
Y154300D02*
D03*
Y149300D02*
D03*
X226907Y184300D02*
D03*
Y179300D02*
D03*
Y174300D02*
D03*
Y169300D02*
D03*
Y164300D02*
D03*
Y159300D02*
D03*
Y154300D02*
D03*
Y149300D02*
D03*
Y144300D02*
D03*
D56*
X360045Y73255D02*
D03*
X354755Y78545D02*
D03*
X29989Y190011D02*
D03*
X118800Y188111D02*
D03*
X182747Y244413D02*
D03*
X24700Y195300D02*
D03*
X113511Y193400D02*
D03*
X177458Y249703D02*
D03*
D57*
X229507Y288500D02*
D03*
X93800Y286200D02*
D03*
X35006Y119000D02*
D03*
Y124000D02*
D03*
Y129000D02*
D03*
Y134000D02*
D03*
Y139000D02*
D03*
Y144000D02*
D03*
Y149000D02*
D03*
Y154000D02*
D03*
X60006Y149000D02*
D03*
Y144000D02*
D03*
Y139000D02*
D03*
Y119000D02*
D03*
Y124000D02*
D03*
Y129000D02*
D03*
Y134000D02*
D03*
Y154000D02*
D03*
X229507Y273500D02*
D03*
X93800Y291200D02*
D03*
X254507Y288500D02*
D03*
X282100Y25900D02*
D03*
Y20900D02*
D03*
Y15900D02*
D03*
Y10900D02*
D03*
X307100D02*
D03*
Y15900D02*
D03*
Y20900D02*
D03*
Y25900D02*
D03*
X118800Y296200D02*
D03*
Y291200D02*
D03*
Y286200D02*
D03*
Y281200D02*
D03*
X93800D02*
D03*
Y296200D02*
D03*
X229507Y278500D02*
D03*
Y283500D02*
D03*
X254507D02*
D03*
Y278500D02*
D03*
Y273500D02*
D03*
D58*
X86989Y186889D02*
D03*
X32663Y245643D02*
D03*
X175883Y276700D02*
D03*
X201976Y250607D02*
D03*
X110600Y248500D02*
D03*
X81700Y181600D02*
D03*
X37952Y250932D02*
D03*
X105311Y243211D02*
D03*
X196686Y245318D02*
D03*
X170594Y271410D02*
D03*
X180145Y200845D02*
D03*
X174855Y195555D02*
D03*
D59*
X28264Y300258D02*
D03*
X59564D02*
D03*
X28550Y319242D02*
D03*
X59850D02*
D03*
Y336958D02*
D03*
X28550D02*
D03*
X59564Y282542D02*
D03*
X28264D02*
D03*
D60*
X224360Y217800D02*
D03*
X231840D02*
D03*
X272770Y174600D02*
D03*
X280250D02*
D03*
X348591Y174409D02*
D03*
X356071D02*
D03*
X231830Y207500D02*
D03*
X224350D02*
D03*
D61*
X285040Y147296D02*
D03*
D62*
X179531Y267758D02*
D03*
X192963Y254326D02*
D03*
D63*
X284253Y141390D02*
D03*
Y153201D02*
D03*
D64*
X277302Y296954D02*
D03*
X279861D02*
D03*
X282420D02*
D03*
X287539D02*
D03*
X290098D02*
D03*
X295216D02*
D03*
X297775D02*
D03*
X300334D02*
D03*
X292657D02*
D03*
X284980D02*
D03*
X274743D02*
D03*
X272184D02*
D03*
X282420Y266246D02*
D03*
X269625D02*
D03*
X272184D02*
D03*
X274743D02*
D03*
X277302D02*
D03*
X279861D02*
D03*
X284980D02*
D03*
X287539D02*
D03*
X290098D02*
D03*
X292657D02*
D03*
X295216D02*
D03*
X297775D02*
D03*
X300334D02*
D03*
X267066Y296954D02*
D03*
X269625D02*
D03*
D65*
X48368Y240516D02*
D03*
X50595Y242743D02*
D03*
X52822Y244970D02*
D03*
X55049Y247197D02*
D03*
X86229Y216018D02*
D03*
X84002Y213790D02*
D03*
X81775Y211563D02*
D03*
X79548Y209336D02*
D03*
X77321Y207109D02*
D03*
X75093Y204882D02*
D03*
X72866Y202655D02*
D03*
X70639Y200428D02*
D03*
X68412Y198201D02*
D03*
X66185Y195974D02*
D03*
X63958Y193746D02*
D03*
X32778Y224926D02*
D03*
X35006Y227153D02*
D03*
X37233Y229380D02*
D03*
X39460Y231607D02*
D03*
X41687Y233834D02*
D03*
X43914Y236061D02*
D03*
X46141Y238289D02*
D03*
D66*
X63958Y247197D02*
D03*
X66185Y244970D02*
D03*
X68412Y242743D02*
D03*
X70639Y240516D02*
D03*
X72866Y238289D02*
D03*
X75093Y236061D02*
D03*
X77321Y233834D02*
D03*
X79548Y231607D02*
D03*
X81775Y229380D02*
D03*
X84002Y227153D02*
D03*
X86229Y224926D02*
D03*
X55049Y193746D02*
D03*
X52822Y195974D02*
D03*
X50595Y198201D02*
D03*
X48368Y200428D02*
D03*
X46141Y202655D02*
D03*
X43914Y204882D02*
D03*
X41687Y207109D02*
D03*
X39460Y209336D02*
D03*
X37233Y211563D02*
D03*
X35006Y213790D02*
D03*
X32778Y216018D02*
D03*
D67*
X267066Y266246D02*
D03*
D68*
X276400Y339200D02*
D03*
Y346680D02*
D03*
X247400Y346780D02*
D03*
Y339300D02*
D03*
D69*
X335753Y54590D02*
D03*
D70*
X323430Y42267D02*
D03*
X348076D02*
D03*
Y66913D02*
D03*
X323430D02*
D03*
D71*
X308980Y225400D02*
D03*
X328980D02*
D03*
X358980D02*
D03*
X318980D02*
D03*
X318957Y325499D02*
D03*
X309115D02*
D03*
X318957Y315657D02*
D03*
X309115D02*
D03*
X348980Y225400D02*
D03*
D72*
X290800Y72400D02*
D03*
D73*
X280800D02*
D03*
X270800D02*
D03*
X265800Y122400D02*
D03*
Y112400D02*
D03*
D74*
X164800Y337600D02*
D03*
X154800Y347600D02*
D03*
X144800D02*
D03*
Y337600D02*
D03*
X134800D02*
D03*
Y347600D02*
D03*
X154800Y337600D02*
D03*
X124800Y347600D02*
D03*
X164800D02*
D03*
D75*
X124800Y337600D02*
D03*
D76*
X93000Y355700D02*
D03*
X83000D02*
D03*
X73000D02*
D03*
X93000Y345700D02*
D03*
X205700Y345908D02*
D03*
X215700D02*
D03*
X205700Y355908D02*
D03*
X195700D02*
D03*
X83000Y345700D02*
D03*
X215700Y355908D02*
D03*
D77*
X277302Y248018D02*
D03*
Y228700D02*
D03*
X359500Y201800D02*
D03*
D78*
X195700Y345908D02*
D03*
X73000Y345700D02*
D03*
D79*
X265800Y102400D02*
D03*
D80*
X328800Y296956D02*
D03*
Y344200D02*
D03*
D81*
X15748Y15748D02*
D03*
X358268D02*
D03*
X15748Y358268D02*
D03*
X358268D02*
D03*
M02*
