G04*
G04 #@! TF.GenerationSoftware,Altium Limited,Altium Designer,21.6.4 (81)*
G04*
G04 Layer_Color=255*
%FSLAX25Y25*%
%MOIN*%
G70*
G04*
G04 #@! TF.SameCoordinates,DCC330B1-B26A-4D2F-83E0-9CF8D3C12DAD*
G04*
G04*
G04 #@! TF.FilePolarity,Positive*
G04*
G01*
G75*
%ADD83C,0.09200*%
%ADD84C,0.09500*%
%ADD85C,0.07874*%
%ADD86R,0.04724X0.04724*%
%ADD87C,0.04724*%
%ADD88C,0.07000*%
%ADD89R,0.07000X0.07000*%
%ADD90C,0.05906*%
%ADD91C,0.13780*%
%ADD92R,0.05906X0.05906*%
%ADD93R,0.04724X0.04724*%
%ADD94C,0.15748*%
%ADD95C,0.19685*%
%ADD96R,0.02953X0.02953*%
%ADD97R,0.02953X0.02953*%
%ADD98R,0.02953X0.02953*%
D83*
X335753Y54590D02*
D03*
D84*
X323430Y42267D02*
D03*
X348076D02*
D03*
Y66913D02*
D03*
X323430D02*
D03*
D85*
X308980Y225400D02*
D03*
X328980D02*
D03*
X358980D02*
D03*
X318980D02*
D03*
X318957Y325499D02*
D03*
X309115D02*
D03*
X318957Y315657D02*
D03*
X309115D02*
D03*
X348980Y225400D02*
D03*
D86*
X290800Y72400D02*
D03*
D87*
X280800D02*
D03*
X270800D02*
D03*
X265800Y122400D02*
D03*
Y112400D02*
D03*
D88*
X164800Y337600D02*
D03*
X154800Y347600D02*
D03*
X144800D02*
D03*
Y337600D02*
D03*
X134800D02*
D03*
Y347600D02*
D03*
X154800Y337600D02*
D03*
X124800Y347600D02*
D03*
X164800D02*
D03*
D89*
X124800Y337600D02*
D03*
D90*
X93000Y355700D02*
D03*
X83000D02*
D03*
X73000D02*
D03*
X93000Y345700D02*
D03*
X205700Y345908D02*
D03*
X215700D02*
D03*
X205700Y355908D02*
D03*
X195700D02*
D03*
X83000Y345700D02*
D03*
X215700Y355908D02*
D03*
D91*
X277302Y248018D02*
D03*
Y228700D02*
D03*
X359500Y201800D02*
D03*
D92*
X195700Y345908D02*
D03*
X73000Y345700D02*
D03*
D93*
X265800Y102400D02*
D03*
D94*
X328800Y296956D02*
D03*
Y344200D02*
D03*
D95*
X15748Y15748D02*
D03*
X358268D02*
D03*
X15748Y358268D02*
D03*
X358268D02*
D03*
D96*
X307027Y173237D02*
D03*
Y183237D02*
D03*
D97*
X247300Y231100D02*
D03*
D98*
X237300D02*
D03*
M02*
