G04*
G04 #@! TF.GenerationSoftware,Altium Limited,Altium Designer,21.6.4 (81)*
G04*
G04 Layer_Color=65535*
%FSLAX25Y25*%
%MOIN*%
G70*
G04*
G04 #@! TF.SameCoordinates,DCC330B1-B26A-4D2F-83E0-9CF8D3C12DAD*
G04*
G04*
G04 #@! TF.FilePolarity,Positive*
G04*
G01*
G75*
%ADD10C,0.01000*%
%ADD11C,0.00700*%
%ADD12C,0.02000*%
%ADD13C,0.00787*%
%ADD14C,0.00984*%
%ADD15C,0.02362*%
%ADD16C,0.00800*%
D10*
X359375Y54590D02*
G03*
X359375Y54590I-23622J0D01*
G01*
X76746Y154000D02*
G03*
X76746Y154000I-591J0D01*
G01*
X334000Y13400D02*
G03*
X334000Y13400I-3000J0D01*
G01*
X53157Y328100D02*
G03*
X53157Y328100I-9055J0D01*
G01*
X52871Y291400D02*
G03*
X52871Y291400I-9055J0D01*
G01*
X368000Y201800D02*
G03*
X368000Y201800I-8500J0D01*
G01*
X364100Y102400D02*
G03*
X364100Y102400I-3000J0D01*
G01*
X287343Y51186D02*
G03*
X287343Y51186I-3000J0D01*
G01*
X364100Y94561D02*
G03*
X364100Y94561I-3000J0D01*
G01*
X33906Y94400D02*
G03*
X33906Y94400I-3000J0D01*
G01*
X253600Y13100D02*
G03*
X253600Y13100I-3000J0D01*
G01*
X262900Y13300D02*
G03*
X262900Y13300I-3000J0D01*
G01*
X285802Y228700D02*
G03*
X285802Y228700I-8500J0D01*
G01*
X285802Y248018D02*
G03*
X285802Y248018I-8500J0D01*
G01*
X55350Y315108D02*
Y341092D01*
X33350Y315108D02*
X55350D01*
X33350D02*
Y341092D01*
X55350D01*
X33064Y304392D02*
X55064D01*
X33064Y278408D02*
Y304392D01*
Y278408D02*
X55064D01*
Y304392D01*
X302858Y132721D02*
X309551D01*
X302858Y124221D02*
Y132721D01*
X309551Y124221D02*
Y132721D01*
X302858Y124171D02*
X309551D01*
X302858Y130721D02*
X309551D01*
X302858Y84321D02*
X309551D01*
X302858Y77771D02*
X309551D01*
Y77821D02*
Y86321D01*
X302858Y77821D02*
Y86321D01*
X309551D01*
X288822Y249809D02*
X368822D01*
X288822Y219494D02*
Y249809D01*
Y219494D02*
X368822D01*
Y249809D01*
X303209Y344200D02*
X368564D01*
Y296956D02*
Y344200D01*
X303209Y296956D02*
X368564D01*
X303209Y297350D02*
Y344200D01*
X188008Y250372D02*
X188579D01*
X175957Y262424D02*
X188008Y250372D01*
X175957Y262424D02*
X175957Y263025D01*
X184194Y271302D02*
X184834D01*
X196825Y259312D01*
Y258710D02*
Y259312D01*
X232134Y110633D02*
X231467Y111299D01*
X230134D01*
X229468Y110633D01*
Y107967D01*
X230134Y107301D01*
X231467D01*
X232134Y107967D01*
X233467D02*
X234133Y107301D01*
X235466D01*
X236132Y107967D01*
Y110633D01*
X235466Y111299D01*
X234133D01*
X233467Y110633D01*
Y109967D01*
X234133Y109300D01*
X236132D01*
X232134Y120133D02*
X231467Y120799D01*
X230134D01*
X229468Y120133D01*
Y117467D01*
X230134Y116801D01*
X231467D01*
X232134Y117467D01*
X233467Y120133D02*
X234133Y120799D01*
X235466D01*
X236132Y120133D01*
Y119466D01*
X235466Y118800D01*
X236132Y118133D01*
Y117467D01*
X235466Y116801D01*
X234133D01*
X233467Y117467D01*
Y118133D01*
X234133Y118800D01*
X233467Y119466D01*
Y120133D01*
X234133Y118800D02*
X235466D01*
X231834Y129633D02*
X231167Y130299D01*
X229834D01*
X229168Y129633D01*
Y126967D01*
X229834Y126301D01*
X231167D01*
X231834Y126967D01*
X233167Y130299D02*
X235832D01*
Y129633D01*
X233167Y126967D01*
Y126301D01*
X365006Y56149D02*
X363673D01*
X364339D01*
Y52817D01*
X363673Y52151D01*
X363007D01*
X362340Y52817D01*
X366339Y52151D02*
X367672D01*
X367005D01*
Y56149D01*
X366339Y55483D01*
X278368Y46099D02*
X281034D01*
X279701D01*
Y42101D01*
X282367D02*
Y46099D01*
X284366D01*
X285033Y45433D01*
Y44100D01*
X284366Y43434D01*
X282367D01*
X288365Y42101D02*
Y46099D01*
X286366Y44100D01*
X289032D01*
X338850Y86016D02*
X338183Y86682D01*
X336850D01*
X336184Y86016D01*
Y83350D01*
X336850Y82684D01*
X338183D01*
X338850Y83350D01*
X340182Y82684D02*
X341515D01*
X340849D01*
Y86682D01*
X340182Y86016D01*
X343515D02*
X344181Y86682D01*
X345514D01*
X346181Y86016D01*
Y85350D01*
X345514Y84683D01*
X344848D01*
X345514D01*
X346181Y84017D01*
Y83350D01*
X345514Y82684D01*
X344181D01*
X343515Y83350D01*
X315384Y129782D02*
Y126450D01*
X316050Y125784D01*
X317383D01*
X318050Y126450D01*
Y129782D01*
X319383Y125784D02*
X320715D01*
X320049D01*
Y129782D01*
X319383Y129116D01*
X315001Y255233D02*
X314334Y255899D01*
X313001D01*
X312335Y255233D01*
Y252567D01*
X313001Y251901D01*
X314334D01*
X315001Y252567D01*
X318333Y251901D02*
Y255899D01*
X316334Y253900D01*
X318999D01*
X320332Y251901D02*
X321665D01*
X320999D01*
Y255899D01*
X320332Y255233D01*
X347834D02*
X347168Y255899D01*
X345835D01*
X345168Y255233D01*
Y252567D01*
X345835Y251901D01*
X347168D01*
X347834Y252567D01*
X351166Y251901D02*
Y255899D01*
X349167Y253900D01*
X351833D01*
X353166Y255899D02*
X355832D01*
Y255233D01*
X353166Y252567D01*
Y251901D01*
X366667Y281938D02*
X366001Y281272D01*
Y279939D01*
X366667Y279272D01*
X369333D01*
X369999Y279939D01*
Y281272D01*
X369333Y281938D01*
X366667Y283271D02*
X366001Y283937D01*
Y285270D01*
X366667Y285937D01*
X367334D01*
X368000Y285270D01*
Y284604D01*
Y285270D01*
X368666Y285937D01*
X369333D01*
X369999Y285270D01*
Y283937D01*
X369333Y283271D01*
X366001Y287270D02*
Y289935D01*
X366667D01*
X369333Y287270D01*
X369999D01*
X360267Y281937D02*
X359601Y281271D01*
Y279938D01*
X360267Y279272D01*
X362933D01*
X363599Y279938D01*
Y281271D01*
X362933Y281937D01*
X360267Y283270D02*
X359601Y283937D01*
Y285270D01*
X360267Y285936D01*
X360933D01*
X361600Y285270D01*
Y284603D01*
Y285270D01*
X362266Y285936D01*
X362933D01*
X363599Y285270D01*
Y283937D01*
X362933Y283270D01*
X359601Y289935D02*
X360267Y288602D01*
X361600Y287269D01*
X362933D01*
X363599Y287935D01*
Y289268D01*
X362933Y289935D01*
X362266D01*
X361600Y289268D01*
Y287269D01*
X360267Y268634D02*
X359601Y267968D01*
Y266635D01*
X360267Y265968D01*
X362933D01*
X363599Y266635D01*
Y267968D01*
X362933Y268634D01*
X363599Y271967D02*
X359601D01*
X361600Y269967D01*
Y272633D01*
X360267Y273966D02*
X359601Y274632D01*
Y275965D01*
X360267Y276632D01*
X362933D01*
X363599Y275965D01*
Y274632D01*
X362933Y273966D01*
X360267D01*
X366667Y268634D02*
X366001Y267968D01*
Y266635D01*
X366667Y265968D01*
X369333D01*
X369999Y266635D01*
Y267968D01*
X369333Y268634D01*
X366667Y269967D02*
X366001Y270634D01*
Y271967D01*
X366667Y272633D01*
X367334D01*
X368000Y271967D01*
Y271300D01*
Y271967D01*
X368666Y272633D01*
X369333D01*
X369999Y271967D01*
Y270634D01*
X369333Y269967D01*
X366667Y273966D02*
X366001Y274632D01*
Y275965D01*
X366667Y276632D01*
X367334D01*
X368000Y275965D01*
X368666Y276632D01*
X369333D01*
X369999Y275965D01*
Y274632D01*
X369333Y273966D01*
X368666D01*
X368000Y274632D01*
X367334Y273966D01*
X366667D01*
X368000Y274632D02*
Y275965D01*
X143750Y275483D02*
X141084D01*
Y273483D01*
X142417D01*
X141084D01*
Y271484D01*
X145082D02*
X146415D01*
X145749D01*
Y275483D01*
X145082Y274816D01*
X58798Y265733D02*
X56132D01*
Y263733D01*
X57465D01*
X56132D01*
Y261734D01*
X62797D02*
X60131D01*
X62797Y264400D01*
Y265066D01*
X62130Y265733D01*
X60797D01*
X60131Y265066D01*
X192752Y46147D02*
X192085Y46814D01*
X190752D01*
X190086Y46147D01*
Y43481D01*
X190752Y42815D01*
X192085D01*
X192752Y43481D01*
X194085Y42815D02*
X195417D01*
X194751D01*
Y46814D01*
X194085Y46147D01*
X197417Y42815D02*
X198750D01*
X198083D01*
Y46814D01*
X197417Y46147D01*
X294934Y259533D02*
X294268Y260199D01*
X292935D01*
X292268Y259533D01*
Y256867D01*
X292935Y256201D01*
X294268D01*
X294934Y256867D01*
X296267Y259533D02*
X296934Y260199D01*
X298266D01*
X298933Y259533D01*
Y258866D01*
X298266Y258200D01*
X297600D01*
X298266D01*
X298933Y257534D01*
Y256867D01*
X298266Y256201D01*
X296934D01*
X296267Y256867D01*
X302932Y260199D02*
X300266D01*
Y258200D01*
X301599Y258866D01*
X302265D01*
X302932Y258200D01*
Y256867D01*
X302265Y256201D01*
X300932D01*
X300266Y256867D01*
X331250Y255016D02*
X330583Y255682D01*
X329250D01*
X328584Y255016D01*
Y252350D01*
X329250Y251684D01*
X330583D01*
X331250Y252350D01*
X334582Y251684D02*
Y255682D01*
X332582Y253683D01*
X335248D01*
X339247Y255682D02*
X337914Y255016D01*
X336581Y253683D01*
Y252350D01*
X337248Y251684D01*
X338581D01*
X339247Y252350D01*
Y253017D01*
X338581Y253683D01*
X336581D01*
X61784Y52484D02*
Y56482D01*
X63783D01*
X64450Y55816D01*
Y54483D01*
X63783Y53817D01*
X61784D01*
X63117D02*
X64450Y52484D01*
X65782D02*
X67115D01*
X66449D01*
Y56482D01*
X65782Y55816D01*
X69115Y56482D02*
X71781D01*
Y55816D01*
X69115Y53150D01*
Y52484D01*
X93284Y52884D02*
Y56883D01*
X95283D01*
X95950Y56216D01*
Y54883D01*
X95283Y54217D01*
X93284D01*
X94617D02*
X95950Y52884D01*
X97282D02*
X98615D01*
X97949D01*
Y56883D01*
X97282Y56216D01*
X100615D02*
X101281Y56883D01*
X102614D01*
X103281Y56216D01*
Y55550D01*
X102614Y54883D01*
X103281Y54217D01*
Y53550D01*
X102614Y52884D01*
X101281D01*
X100615Y53550D01*
Y54217D01*
X101281Y54883D01*
X100615Y55550D01*
Y56216D01*
X101281Y54883D02*
X102614D01*
X125384Y52784D02*
Y56783D01*
X127383D01*
X128050Y56116D01*
Y54783D01*
X127383Y54117D01*
X125384D01*
X126717D02*
X128050Y52784D01*
X129383D02*
X130715D01*
X130049D01*
Y56783D01*
X129383Y56116D01*
X132715Y53450D02*
X133381Y52784D01*
X134714D01*
X135381Y53450D01*
Y56116D01*
X134714Y56783D01*
X133381D01*
X132715Y56116D01*
Y55450D01*
X133381Y54783D01*
X135381D01*
X122784Y9684D02*
Y13682D01*
X124783D01*
X125450Y13016D01*
Y11683D01*
X124783Y11017D01*
X122784D01*
X124117D02*
X125450Y9684D01*
X126783D02*
X128115D01*
X127449D01*
Y13682D01*
X126783Y13016D01*
X132781Y13682D02*
X130115D01*
Y11683D01*
X131448Y12350D01*
X132114D01*
X132781Y11683D01*
Y10350D01*
X132114Y9684D01*
X130781D01*
X130115Y10350D01*
X146884Y9684D02*
Y13682D01*
X148883D01*
X149550Y13016D01*
Y11683D01*
X148883Y11017D01*
X146884D01*
X148217D02*
X149550Y9684D01*
X150882D02*
X152215D01*
X151549D01*
Y13682D01*
X150882Y13016D01*
X156881Y13682D02*
X155548Y13016D01*
X154215Y11683D01*
Y10350D01*
X154881Y9684D01*
X156214D01*
X156881Y10350D01*
Y11017D01*
X156214Y11683D01*
X154215D01*
X90984Y9784D02*
Y13782D01*
X92983D01*
X93650Y13116D01*
Y11783D01*
X92983Y11117D01*
X90984D01*
X92317D02*
X93650Y9784D01*
X94982D02*
X96315D01*
X95649D01*
Y13782D01*
X94982Y13116D01*
X100314Y9784D02*
Y13782D01*
X98315Y11783D01*
X100981D01*
X142600Y18067D02*
Y20733D01*
X141934Y21399D01*
X140601D01*
X139934Y20733D01*
Y18067D01*
X140601Y17401D01*
X141934D01*
X141267Y18733D02*
X142600Y17401D01*
X141934D02*
X142600Y18067D01*
X143933Y20733D02*
X144599Y21399D01*
X145932D01*
X146599Y20733D01*
Y20066D01*
X145932Y19400D01*
X145266D01*
X145932D01*
X146599Y18733D01*
Y18067D01*
X145932Y17401D01*
X144599D01*
X143933Y18067D01*
X110600D02*
Y20733D01*
X109933Y21399D01*
X108601D01*
X107934Y20733D01*
Y18067D01*
X108601Y17401D01*
X109933D01*
X109267Y18733D02*
X110600Y17401D01*
X109933D02*
X110600Y18067D01*
X114599Y17401D02*
X111933D01*
X114599Y20066D01*
Y20733D01*
X113932Y21399D01*
X112599D01*
X111933Y20733D01*
X80300Y18067D02*
Y20733D01*
X79634Y21399D01*
X78301D01*
X77634Y20733D01*
Y18067D01*
X78301Y17401D01*
X79634D01*
X78967Y18733D02*
X80300Y17401D01*
X79634D02*
X80300Y18067D01*
X81633Y17401D02*
X82966D01*
X82299D01*
Y21399D01*
X81633Y20733D01*
X72584Y162083D02*
Y158750D01*
X73250Y158084D01*
X74583D01*
X75250Y158750D01*
Y162083D01*
X76582Y158750D02*
X77249Y158084D01*
X78582D01*
X79248Y158750D01*
Y161416D01*
X78582Y162083D01*
X77249D01*
X76582Y161416D01*
Y160750D01*
X77249Y160083D01*
X79248D01*
X288284Y180253D02*
Y182877D01*
X289596Y184189D01*
X290908Y182877D01*
Y180253D01*
Y182221D01*
X288284D01*
X292220Y184189D02*
Y181565D01*
X293531Y180253D01*
X294843Y181565D01*
Y184189D01*
X298779Y183533D02*
X298123Y184189D01*
X296811D01*
X296155Y183533D01*
Y180909D01*
X296811Y180253D01*
X298123D01*
X298779Y180909D01*
X302715Y183533D02*
X302059Y184189D01*
X300747D01*
X300091Y183533D01*
Y180909D01*
X300747Y180253D01*
X302059D01*
X302715Y180909D01*
X304027Y182221D02*
X306651D01*
X305339Y183533D02*
Y180909D01*
X237263Y223820D02*
Y227819D01*
X239928Y223820D01*
Y227819D01*
X241261D02*
X243927D01*
X242594D01*
Y223820D01*
X247926D02*
X245260D01*
X247926Y226486D01*
Y227153D01*
X247259Y227819D01*
X245926D01*
X245260Y227153D01*
X280968Y56401D02*
Y60399D01*
X282967D01*
X283634Y59733D01*
Y58400D01*
X282967Y57734D01*
X280968D01*
X282301D02*
X283634Y56401D01*
X287632D02*
X284966D01*
X287632Y59066D01*
Y59733D01*
X286966Y60399D01*
X285633D01*
X284966Y59733D01*
X345115Y199354D02*
X344459Y198698D01*
Y197386D01*
X345115Y196730D01*
X347739D01*
X348394Y197386D01*
Y198698D01*
X347739Y199354D01*
X346427D01*
Y198042D01*
X348394Y200666D02*
X344459D01*
X348394Y203290D01*
X344459D01*
Y204602D02*
X348394D01*
Y206570D01*
X347739Y207225D01*
X345115D01*
X344459Y206570D01*
Y204602D01*
X356268Y216582D02*
X358934D01*
X357601D01*
Y212584D01*
X360267D02*
Y216582D01*
X362266D01*
X362933Y215916D01*
Y214583D01*
X362266Y213917D01*
X360267D01*
X364266Y215916D02*
X364932Y216582D01*
X366265D01*
X366932Y215916D01*
Y215250D01*
X366265Y214583D01*
X366932Y213917D01*
Y213250D01*
X366265Y212584D01*
X364932D01*
X364266Y213250D01*
Y213917D01*
X364932Y214583D01*
X364266Y215250D01*
Y215916D01*
X364932Y214583D02*
X366265D01*
X315399Y10557D02*
X318064D01*
X316732D01*
Y6558D01*
X319397D02*
Y10557D01*
X321397D01*
X322063Y9890D01*
Y8557D01*
X321397Y7891D01*
X319397D01*
X323396Y6558D02*
X324729D01*
X324062D01*
Y10557D01*
X323396Y9890D01*
X315368Y17099D02*
Y13767D01*
X316034Y13101D01*
X317367D01*
X318034Y13767D01*
Y17099D01*
X322032D02*
X320699Y16433D01*
X319367Y15100D01*
Y13767D01*
X320033Y13101D01*
X321366D01*
X322032Y13767D01*
Y14434D01*
X321366Y15100D01*
X319367D01*
X69150Y301616D02*
X68483Y302283D01*
X67150D01*
X66484Y301616D01*
Y298950D01*
X67150Y298284D01*
X68483D01*
X69150Y298950D01*
X70482Y301616D02*
X71149Y302283D01*
X72482D01*
X73148Y301616D01*
Y300950D01*
X72482Y300283D01*
X71815D01*
X72482D01*
X73148Y299617D01*
Y298950D01*
X72482Y298284D01*
X71149D01*
X70482Y298950D01*
X74481Y298284D02*
X75814D01*
X75148D01*
Y302283D01*
X74481Y301616D01*
X69150Y264916D02*
X68483Y265582D01*
X67150D01*
X66484Y264916D01*
Y262250D01*
X67150Y261584D01*
X68483D01*
X69150Y262250D01*
X70482Y264916D02*
X71149Y265582D01*
X72482D01*
X73148Y264916D01*
Y264250D01*
X72482Y263583D01*
X71815D01*
X72482D01*
X73148Y262917D01*
Y262250D01*
X72482Y261584D01*
X71149D01*
X70482Y262250D01*
X74481Y264916D02*
X75148Y265582D01*
X76481D01*
X77147Y264916D01*
Y264250D01*
X76481Y263583D01*
X75814D01*
X76481D01*
X77147Y262917D01*
Y262250D01*
X76481Y261584D01*
X75148D01*
X74481Y262250D01*
X12800Y329433D02*
X12133Y330099D01*
X10801D01*
X10134Y329433D01*
Y328766D01*
X10801Y328100D01*
X12133D01*
X12800Y327434D01*
Y326767D01*
X12133Y326101D01*
X10801D01*
X10134Y326767D01*
X14133Y326101D02*
X15466D01*
X14799D01*
Y330099D01*
X14133Y329433D01*
X12833Y292733D02*
X12167Y293399D01*
X10834D01*
X10168Y292733D01*
Y292066D01*
X10834Y291400D01*
X12167D01*
X12833Y290734D01*
Y290067D01*
X12167Y289401D01*
X10834D01*
X10168Y290067D01*
X16832Y289401D02*
X14166D01*
X16832Y292066D01*
Y292733D01*
X16166Y293399D01*
X14833D01*
X14166Y292733D01*
X326900Y186080D02*
Y190079D01*
X328899D01*
X329566Y189413D01*
Y188080D01*
X328899Y187413D01*
X326900D01*
X328233D02*
X329566Y186080D01*
X333564D02*
X330899D01*
X333564Y188746D01*
Y189413D01*
X332898Y190079D01*
X331565D01*
X330899Y189413D01*
X334897Y190079D02*
X337563D01*
Y189413D01*
X334897Y186747D01*
Y186080D01*
X290368Y186531D02*
Y190529D01*
X292368D01*
X293034Y189863D01*
Y188530D01*
X292368Y187864D01*
X290368D01*
X291701D02*
X293034Y186531D01*
X297033D02*
X294367D01*
X297033Y189196D01*
Y189863D01*
X296367Y190529D01*
X295034D01*
X294367Y189863D01*
X298366D02*
X299032Y190529D01*
X300365D01*
X301032Y189863D01*
Y189196D01*
X300365Y188530D01*
X301032Y187864D01*
Y187197D01*
X300365Y186531D01*
X299032D01*
X298366Y187197D01*
Y187864D01*
X299032Y188530D01*
X298366Y189196D01*
Y189863D01*
X299032Y188530D02*
X300365D01*
X348884Y166482D02*
Y162484D01*
X350883D01*
X351550Y163150D01*
Y165816D01*
X350883Y166482D01*
X348884D01*
X352883D02*
X355548D01*
Y165816D01*
X352883Y163150D01*
Y162484D01*
X273384Y166782D02*
Y162784D01*
X275383D01*
X276050Y163450D01*
Y166116D01*
X275383Y166782D01*
X273384D01*
X277382Y166116D02*
X278049Y166782D01*
X279382D01*
X280048Y166116D01*
Y165450D01*
X279382Y164783D01*
X280048Y164117D01*
Y163450D01*
X279382Y162784D01*
X278049D01*
X277382Y163450D01*
Y164117D01*
X278049Y164783D01*
X277382Y165450D01*
Y166116D01*
X278049Y164783D02*
X279382D01*
X269117Y150610D02*
Y147277D01*
X269783Y146611D01*
X271116D01*
X271783Y147277D01*
Y150610D01*
X273116Y146611D02*
X274449D01*
X273782D01*
Y150610D01*
X273116Y149943D01*
X278447Y146611D02*
Y150610D01*
X276448Y148610D01*
X279114D01*
X310735Y177401D02*
Y181399D01*
X313401Y177401D01*
Y181399D01*
X314734D02*
X317399D01*
X316066D01*
Y177401D01*
X318732D02*
X320065D01*
X319399D01*
Y181399D01*
X318732Y180733D01*
X201363Y336561D02*
X202675D01*
X202019D01*
Y332626D01*
X201363D01*
X202675D01*
X207267Y335906D02*
X206611Y336561D01*
X205299D01*
X204643Y335906D01*
Y335250D01*
X205299Y334594D01*
X206611D01*
X207267Y333938D01*
Y333282D01*
X206611Y332626D01*
X205299D01*
X204643Y333282D01*
X208579Y332626D02*
Y336561D01*
X210547D01*
X211203Y335906D01*
Y334594D01*
X210547Y333938D01*
X208579D01*
X316445Y359575D02*
Y356295D01*
X317101Y355639D01*
X318412D01*
X319068Y356295D01*
Y359575D01*
X323004Y358919D02*
X322348Y359575D01*
X321036D01*
X320380Y358919D01*
Y358263D01*
X321036Y357607D01*
X322348D01*
X323004Y356951D01*
Y356295D01*
X322348Y355639D01*
X321036D01*
X320380Y356295D01*
X324316Y359575D02*
Y355639D01*
X326284D01*
X326940Y356295D01*
Y356951D01*
X326284Y357607D01*
X324316D01*
X326284D01*
X326940Y358263D01*
Y358919D01*
X326284Y359575D01*
X324316D01*
X358161Y41276D02*
Y37341D01*
X360129D01*
X360785Y37997D01*
Y38652D01*
X360129Y39308D01*
X358161D01*
X360129D01*
X360785Y39964D01*
Y40620D01*
X360129Y41276D01*
X358161D01*
X362097Y37341D02*
Y41276D01*
X364720Y37341D01*
Y41276D01*
X368656Y40620D02*
X368000Y41276D01*
X366688D01*
X366032Y40620D01*
Y37997D01*
X366688Y37341D01*
X368000D01*
X368656Y37997D01*
X68824Y337580D02*
X68168Y338236D01*
X66856D01*
X66200Y337580D01*
Y334956D01*
X66856Y334300D01*
X68168D01*
X68824Y334956D01*
X70136Y334300D02*
Y338236D01*
X72104D01*
X72760Y337580D01*
Y336268D01*
X72104Y335612D01*
X70136D01*
X74072Y338236D02*
Y334300D01*
X76695D01*
X78007Y338236D02*
Y334300D01*
X79975D01*
X80631Y334956D01*
Y337580D01*
X79975Y338236D01*
X78007D01*
X88503D02*
X87191D01*
X87847D01*
Y334956D01*
X87191Y334300D01*
X86535D01*
X85879Y334956D01*
X89814Y338236D02*
X92438D01*
X91126D01*
Y334300D01*
X93750D02*
Y336924D01*
X95062Y338236D01*
X96374Y336924D01*
Y334300D01*
Y336268D01*
X93750D01*
X100310Y337580D02*
X99654Y338236D01*
X98342D01*
X97686Y337580D01*
Y334956D01*
X98342Y334300D01*
X99654D01*
X100310Y334956D01*
Y336268D01*
X98998D01*
X129000Y317700D02*
Y321636D01*
X130312Y320324D01*
X131624Y321636D01*
Y317700D01*
X135560Y320980D02*
X134904Y321636D01*
X133592D01*
X132936Y320980D01*
Y318356D01*
X133592Y317700D01*
X134904D01*
X135560Y318356D01*
X136872Y321636D02*
Y318356D01*
X137527Y317700D01*
X138839D01*
X139495Y318356D01*
Y321636D01*
X147367D02*
X146055D01*
X146711D01*
Y318356D01*
X146055Y317700D01*
X145399D01*
X144743Y318356D01*
X148679Y321636D02*
X151303D01*
X149991D01*
Y317700D01*
X152614D02*
Y320324D01*
X153926Y321636D01*
X155238Y320324D01*
Y317700D01*
Y319668D01*
X152614D01*
X159174Y320980D02*
X158518Y321636D01*
X157206D01*
X156550Y320980D01*
Y318356D01*
X157206Y317700D01*
X158518D01*
X159174Y318356D01*
Y319668D01*
X157862D01*
X39300Y349800D02*
Y353736D01*
X41268D01*
X41924Y353080D01*
Y351768D01*
X41268Y351112D01*
X39300D01*
X40612D02*
X41924Y349800D01*
X45860Y353080D02*
X45204Y353736D01*
X43892D01*
X43236Y353080D01*
Y352424D01*
X43892Y351768D01*
X45204D01*
X45860Y351112D01*
Y350456D01*
X45204Y349800D01*
X43892D01*
X43236Y350456D01*
X47172Y353736D02*
X49795D01*
X48483D01*
Y349800D01*
X37400Y272636D02*
X40024D01*
X38712D01*
Y268700D01*
X41336D02*
Y272636D01*
X43304D01*
X43960Y271980D01*
Y270668D01*
X43304Y270012D01*
X41336D01*
X42648D02*
X43960Y268700D01*
X45272Y272636D02*
X46583D01*
X45927D01*
Y268700D01*
X45272D01*
X46583D01*
X51175Y271980D02*
X50519Y272636D01*
X49207D01*
X48551Y271980D01*
Y269356D01*
X49207Y268700D01*
X50519D01*
X51175Y269356D01*
Y270668D01*
X49863D01*
X350965Y105680D02*
X350309Y106336D01*
X348998D01*
X348342Y105680D01*
Y105024D01*
X348998Y104368D01*
X350309D01*
X350965Y103712D01*
Y103056D01*
X350309Y102400D01*
X348998D01*
X348342Y103056D01*
X354901Y105024D02*
X352933D01*
X352277Y104368D01*
Y103056D01*
X352933Y102400D01*
X354901D01*
X238400Y209236D02*
X241024D01*
X239712D01*
Y205300D01*
X242336Y207924D02*
Y205300D01*
Y206612D01*
X242992Y207268D01*
X243648Y207924D01*
X244304D01*
X246271Y205300D02*
X247583D01*
X246927D01*
Y207924D01*
X246271D01*
X250863Y203988D02*
X251519D01*
X252175Y204644D01*
Y207924D01*
X250207D01*
X249551Y207268D01*
Y205956D01*
X250207Y205300D01*
X252175D01*
X254799Y203988D02*
X255455D01*
X256111Y204644D01*
Y207924D01*
X254143D01*
X253487Y207268D01*
Y205956D01*
X254143Y205300D01*
X256111D01*
X259391D02*
X258079D01*
X257423Y205956D01*
Y207268D01*
X258079Y207924D01*
X259391D01*
X260047Y207268D01*
Y206612D01*
X257423D01*
X261358Y207924D02*
Y205300D01*
Y206612D01*
X262014Y207268D01*
X262670Y207924D01*
X263326D01*
X13600Y96036D02*
Y92100D01*
X15568D01*
X16224Y92756D01*
Y95380D01*
X15568Y96036D01*
X13600D01*
X17536Y92100D02*
Y94724D01*
X18848Y96036D01*
X20160Y94724D01*
Y92100D01*
Y94068D01*
X17536D01*
X24095Y95380D02*
X23439Y96036D01*
X22127D01*
X21472Y95380D01*
Y92756D01*
X22127Y92100D01*
X23439D01*
X24095Y92756D01*
X134041Y299866D02*
X133254Y300653D01*
X131680D01*
X130893Y299866D01*
Y299079D01*
X131680Y298292D01*
X133254D01*
X134041Y297504D01*
Y296717D01*
X133254Y295930D01*
X131680D01*
X130893Y296717D01*
X136403Y299866D02*
Y299079D01*
X135616D01*
X137190D01*
X136403D01*
Y296717D01*
X137190Y295930D01*
X139551Y299079D02*
Y296717D01*
X140339Y295930D01*
X142700D01*
Y299079D01*
X147423Y300653D02*
Y295930D01*
X145061D01*
X144274Y296717D01*
Y298292D01*
X145061Y299079D01*
X147423D01*
X151359Y295930D02*
X149784D01*
X148997Y296717D01*
Y298292D01*
X149784Y299079D01*
X151359D01*
X152146Y298292D01*
Y297504D01*
X148997D01*
X153720Y295930D02*
Y299079D01*
X156081D01*
X156869Y298292D01*
Y295930D01*
X159230Y299866D02*
Y299079D01*
X158443D01*
X160017D01*
X159230D01*
Y296717D01*
X160017Y295930D01*
X167102D02*
Y299079D01*
X169463D01*
X170250Y298292D01*
Y295930D01*
X171824Y299079D02*
Y296717D01*
X172612Y295930D01*
X174973D01*
Y299079D01*
X176547Y295930D02*
Y299079D01*
X177334D01*
X178122Y298292D01*
Y295930D01*
Y298292D01*
X178909Y299079D01*
X179696Y298292D01*
Y295930D01*
X181270Y300653D02*
Y295930D01*
X183632D01*
X184419Y296717D01*
Y297504D01*
Y298292D01*
X183632Y299079D01*
X181270D01*
X188355Y295930D02*
X186780D01*
X185993Y296717D01*
Y298292D01*
X186780Y299079D01*
X188355D01*
X189142Y298292D01*
Y297504D01*
X185993D01*
X190716Y299079D02*
Y295930D01*
Y297504D01*
X191503Y298292D01*
X192290Y299079D01*
X193077D01*
X195439D02*
X196226D01*
Y298292D01*
X195439D01*
Y299079D01*
Y296717D02*
X196226D01*
Y295930D01*
X195439D01*
Y296717D01*
X204098Y295930D02*
X205672D01*
X204885D01*
Y300653D01*
X204098Y299866D01*
X208033D02*
X208820Y300653D01*
X210395D01*
X211182Y299866D01*
Y296717D01*
X210395Y295930D01*
X208820D01*
X208033Y296717D01*
Y299866D01*
X215118Y295930D02*
Y300653D01*
X212756Y298292D01*
X215905D01*
X217479Y299866D02*
X218266Y300653D01*
X219840D01*
X220628Y299866D01*
Y299079D01*
X219840Y298292D01*
X220628Y297504D01*
Y296717D01*
X219840Y295930D01*
X218266D01*
X217479Y296717D01*
Y297504D01*
X218266Y298292D01*
X217479Y299079D01*
Y299866D01*
X218266Y298292D02*
X219840D01*
X225350Y300653D02*
X223776Y299866D01*
X222202Y298292D01*
Y296717D01*
X222989Y295930D01*
X224563D01*
X225350Y296717D01*
Y297504D01*
X224563Y298292D01*
X222202D01*
X230073Y300653D02*
X228499Y299866D01*
X226925Y298292D01*
Y296717D01*
X227712Y295930D01*
X229286D01*
X230073Y296717D01*
Y297504D01*
X229286Y298292D01*
X226925D01*
X231648Y296717D02*
X232435Y295930D01*
X234009D01*
X234796Y296717D01*
Y299866D01*
X234009Y300653D01*
X232435D01*
X231648Y299866D01*
Y299079D01*
X232435Y298292D01*
X234796D01*
X130893Y302930D02*
Y307653D01*
X134041Y302930D01*
Y307653D01*
X136403Y306079D02*
X137977D01*
X138764Y305292D01*
Y302930D01*
X136403D01*
X135616Y303717D01*
X136403Y304504D01*
X138764D01*
X140339Y302930D02*
Y306079D01*
X141126D01*
X141913Y305292D01*
Y302930D01*
Y305292D01*
X142700Y306079D01*
X143487Y305292D01*
Y302930D01*
X147423D02*
X145849D01*
X145061Y303717D01*
Y305292D01*
X145849Y306079D01*
X147423D01*
X148210Y305292D01*
Y304504D01*
X145061D01*
X149784Y306079D02*
X150572D01*
Y305292D01*
X149784D01*
Y306079D01*
Y303717D02*
X150572D01*
Y302930D01*
X149784D01*
Y303717D01*
X158443Y307653D02*
Y302930D01*
X161591D01*
X165527D02*
X163953D01*
X163166Y303717D01*
Y305292D01*
X163953Y306079D01*
X165527D01*
X166314Y305292D01*
Y304504D01*
X163166D01*
X167889Y302930D02*
X169463D01*
X168676D01*
Y306079D01*
X167889D01*
X179696Y303717D02*
Y306866D01*
X178909Y307653D01*
X177334D01*
X176547Y306866D01*
Y303717D01*
X177334Y302930D01*
X178909D01*
X178122Y304504D02*
X179696Y302930D01*
X178909D02*
X179696Y303717D01*
X181270Y302930D02*
X182844D01*
X182057D01*
Y306079D01*
X181270D01*
X185206Y302930D02*
Y306079D01*
X187567D01*
X188355Y305292D01*
Y302930D01*
X324500Y180253D02*
Y182877D01*
X325812Y184189D01*
X327124Y182877D01*
Y180253D01*
Y182221D01*
X324500D01*
X328436Y184189D02*
Y181565D01*
X329748Y180253D01*
X331060Y181565D01*
Y184189D01*
X334995Y183533D02*
X334339Y184189D01*
X333027D01*
X332371Y183533D01*
Y180909D01*
X333027Y180253D01*
X334339D01*
X334995Y180909D01*
X338931Y183533D02*
X338275Y184189D01*
X336963D01*
X336307Y183533D01*
Y180909D01*
X336963Y180253D01*
X338275D01*
X338931Y180909D01*
X340243Y182221D02*
X342867D01*
X263400Y341400D02*
Y345336D01*
X265368D01*
X266024Y344680D01*
Y343368D01*
X265368Y342712D01*
X263400D01*
X264712D02*
X266024Y341400D01*
X267336Y345336D02*
X269960Y341400D01*
Y345336D02*
X267336Y341400D01*
X254300Y345336D02*
X256924D01*
X255612D01*
Y341400D01*
X258236Y345336D02*
X260860Y341400D01*
Y345336D02*
X258236Y341400D01*
X238615Y220089D02*
Y216153D01*
X240583D01*
X241239Y216809D01*
Y219433D01*
X240583Y220089D01*
X238615D01*
X243207Y218777D02*
X244519D01*
X245175Y218121D01*
Y216153D01*
X243207D01*
X242551Y216809D01*
X243207Y217465D01*
X245175D01*
X247143Y219433D02*
Y218777D01*
X246487D01*
X247798D01*
X247143D01*
Y216809D01*
X247798Y216153D01*
X250422Y218777D02*
X251734D01*
X252390Y218121D01*
Y216153D01*
X250422D01*
X249766Y216809D01*
X250422Y217465D01*
X252390D01*
X261800Y257042D02*
X264424D01*
X268360Y259010D02*
X265736D01*
Y257042D01*
X267048Y257698D01*
X267704D01*
X268360Y257042D01*
Y255730D01*
X267704Y255074D01*
X266392D01*
X265736Y255730D01*
X261800Y217668D02*
X264424D01*
X263112Y218980D02*
Y216356D01*
X268360Y219636D02*
X265736D01*
Y217668D01*
X267048Y218324D01*
X267704D01*
X268360Y217668D01*
Y216356D01*
X267704Y215700D01*
X266392D01*
X265736Y216356D01*
X234600Y9036D02*
Y5100D01*
X236568D01*
X237224Y5756D01*
Y8380D01*
X236568Y9036D01*
X234600D01*
X238536Y5100D02*
Y7724D01*
X239848Y9036D01*
X241160Y7724D01*
Y5100D01*
Y7068D01*
X238536D01*
X245095Y8380D02*
X244439Y9036D01*
X243127D01*
X242472Y8380D01*
Y5756D01*
X243127Y5100D01*
X244439D01*
X245095Y5756D01*
X267424Y8480D02*
X266768Y9136D01*
X265456D01*
X264800Y8480D01*
Y5856D01*
X265456Y5200D01*
X266768D01*
X267424Y5856D01*
X268736Y9136D02*
Y5200D01*
Y7168D01*
X271360D01*
Y9136D01*
Y5200D01*
X272672D02*
X273983D01*
X273327D01*
Y9136D01*
X272672Y8480D01*
X280800Y36100D02*
Y38724D01*
X282112Y40036D01*
X283424Y38724D01*
Y36100D01*
Y38068D01*
X280800D01*
X284736Y36100D02*
Y38724D01*
X286048Y40036D01*
X287360Y38724D01*
Y36100D01*
Y38068D01*
X284736D01*
X339824Y9838D02*
X339168Y10494D01*
X337856D01*
X337200Y9838D01*
Y7214D01*
X337856Y6558D01*
X339168D01*
X339824Y7214D01*
X341136Y6558D02*
X342448D01*
X341792D01*
Y10494D01*
X341136D01*
X344415Y5246D02*
Y9182D01*
X346383D01*
X347039Y8526D01*
Y7214D01*
X346383Y6558D01*
X344415D01*
X349008Y95696D02*
Y91761D01*
X350976D01*
X351632Y92417D01*
Y93072D01*
X350976Y93729D01*
X349008D01*
X350976D01*
X351632Y94384D01*
Y95040D01*
X350976Y95696D01*
X349008D01*
X353600Y91761D02*
Y95040D01*
Y93729D01*
X352944D01*
X354256D01*
X353600D01*
Y95040D01*
X354256Y95696D01*
X206118Y100999D02*
Y97667D01*
X206784Y97001D01*
X208117D01*
X208784Y97667D01*
Y100999D01*
X212116Y97001D02*
Y100999D01*
X210117Y99000D01*
X212782D01*
X343450Y25816D02*
X342783Y26482D01*
X341450D01*
X340784Y25816D01*
Y23150D01*
X341450Y22484D01*
X342783D01*
X343450Y23150D01*
X344782Y25816D02*
X345449Y26482D01*
X346782D01*
X347448Y25816D01*
Y25150D01*
X346782Y24483D01*
X346115D01*
X346782D01*
X347448Y23817D01*
Y23150D01*
X346782Y22484D01*
X345449D01*
X344782Y23150D01*
X354984Y29184D02*
Y33182D01*
X356317Y31850D01*
X357650Y33182D01*
Y29184D01*
X360982D02*
Y33182D01*
X358982Y31183D01*
X361648D01*
X29184Y13784D02*
Y17783D01*
X30517Y16450D01*
X31850Y17783D01*
Y13784D01*
X33182Y17116D02*
X33849Y17783D01*
X35182D01*
X35848Y17116D01*
Y16450D01*
X35182Y15783D01*
X34515D01*
X35182D01*
X35848Y15117D01*
Y14450D01*
X35182Y13784D01*
X33849D01*
X33182Y14450D01*
X338184Y356284D02*
Y360282D01*
X339517Y358950D01*
X340850Y360282D01*
Y356284D01*
X344848D02*
X342182D01*
X344848Y358950D01*
Y359616D01*
X344182Y360282D01*
X342849D01*
X342182Y359616D01*
X13084Y340784D02*
Y344782D01*
X14417Y343450D01*
X15750Y344782D01*
Y340784D01*
X17083D02*
X18415D01*
X17749D01*
Y344782D01*
X17083Y344116D01*
X205284Y136983D02*
Y133650D01*
X205950Y132984D01*
X207283D01*
X207950Y133650D01*
Y136983D01*
X209282Y136316D02*
X209949Y136983D01*
X211282D01*
X211948Y136316D01*
Y135650D01*
X211282Y134983D01*
X210615D01*
X211282D01*
X211948Y134317D01*
Y133650D01*
X211282Y132984D01*
X209949D01*
X209282Y133650D01*
X187034Y207933D02*
X186368Y208599D01*
X185035D01*
X184368Y207933D01*
Y205267D01*
X185035Y204601D01*
X186368D01*
X187034Y205267D01*
X191033Y204601D02*
X188367D01*
X191033Y207266D01*
Y207933D01*
X190366Y208599D01*
X189033D01*
X188367Y207933D01*
X192366D02*
X193032Y208599D01*
X194365D01*
X195032Y207933D01*
Y207266D01*
X194365Y206600D01*
X195032Y205934D01*
Y205267D01*
X194365Y204601D01*
X193032D01*
X192366Y205267D01*
Y205934D01*
X193032Y206600D01*
X192366Y207266D01*
Y207933D01*
X193032Y206600D02*
X194365D01*
X147450Y130616D02*
X146783Y131282D01*
X145450D01*
X144784Y130616D01*
Y127950D01*
X145450Y127284D01*
X146783D01*
X147450Y127950D01*
X151448Y127284D02*
X148783D01*
X151448Y129950D01*
Y130616D01*
X150782Y131282D01*
X149449D01*
X148783Y130616D01*
X154781Y127284D02*
Y131282D01*
X152781Y129283D01*
X155447D01*
X195538Y269729D02*
X198204Y265730D01*
Y269729D02*
X195538Y265730D01*
X199537D02*
X200869D01*
X200203D01*
Y269729D01*
X199537Y269062D01*
X10484Y222482D02*
Y219150D01*
X11150Y218484D01*
X12483D01*
X13150Y219150D01*
Y222482D01*
X14482Y218484D02*
X15815D01*
X15149D01*
Y222482D01*
X14482Y221816D01*
X20481Y222482D02*
X19148Y221816D01*
X17815Y220483D01*
Y219150D01*
X18481Y218484D01*
X19814D01*
X20481Y219150D01*
Y219817D01*
X19814Y220483D01*
X17815D01*
X256802Y239999D02*
Y236667D01*
X257468Y236001D01*
X258801D01*
X259467Y236667D01*
Y239999D01*
X260800Y236001D02*
X262133D01*
X261467D01*
Y239999D01*
X260800Y239333D01*
X266798Y239999D02*
X264133D01*
Y238000D01*
X265465Y238666D01*
X266132D01*
X266798Y238000D01*
Y236667D01*
X266132Y236001D01*
X264799D01*
X264133Y236667D01*
X236984Y267782D02*
Y264450D01*
X237650Y263784D01*
X238983D01*
X239650Y264450D01*
Y267782D01*
X240983Y263784D02*
X242315D01*
X241649D01*
Y267782D01*
X240983Y267116D01*
X244315D02*
X244981Y267782D01*
X246314D01*
X246981Y267116D01*
Y266450D01*
X246314Y265783D01*
X245648D01*
X246314D01*
X246981Y265117D01*
Y264450D01*
X246314Y263784D01*
X244981D01*
X244315Y264450D01*
X278602Y314899D02*
Y311567D01*
X279268Y310901D01*
X280601D01*
X281267Y311567D01*
Y314899D01*
X282600Y310901D02*
X283933D01*
X283267D01*
Y314899D01*
X282600Y314233D01*
X288598Y310901D02*
X285933D01*
X288598Y313566D01*
Y314233D01*
X287932Y314899D01*
X286599D01*
X285933Y314233D01*
X100568Y213599D02*
Y210267D01*
X101234Y209601D01*
X102567D01*
X103234Y210267D01*
Y213599D01*
X104567Y209601D02*
X105900D01*
X105233D01*
Y213599D01*
X104567Y212933D01*
X107899Y209601D02*
X109232D01*
X108565D01*
Y213599D01*
X107899Y212933D01*
X101284Y275483D02*
Y272150D01*
X101950Y271484D01*
X103283D01*
X103950Y272150D01*
Y275483D01*
X105282Y271484D02*
X106615D01*
X105949D01*
Y275483D01*
X105282Y274816D01*
X108615D02*
X109281Y275483D01*
X110614D01*
X111281Y274816D01*
Y272150D01*
X110614Y271484D01*
X109281D01*
X108615Y272150D01*
Y274816D01*
X132084Y98282D02*
Y94950D01*
X132750Y94284D01*
X134083D01*
X134750Y94950D01*
Y98282D01*
X136082Y97616D02*
X136749Y98282D01*
X138082D01*
X138748Y97616D01*
Y96950D01*
X138082Y96283D01*
X138748Y95617D01*
Y94950D01*
X138082Y94284D01*
X136749D01*
X136082Y94950D01*
Y95617D01*
X136749Y96283D01*
X136082Y96950D01*
Y97616D01*
X136749Y96283D02*
X138082D01*
X31583Y161159D02*
Y157827D01*
X32249Y157161D01*
X33582D01*
X34249Y157827D01*
Y161159D01*
X35581D02*
X38247D01*
Y160493D01*
X35581Y157827D01*
Y157161D01*
X224768Y55699D02*
Y52367D01*
X225434Y51701D01*
X226767D01*
X227434Y52367D01*
Y55699D01*
X231432D02*
X228766D01*
Y53700D01*
X230099Y54366D01*
X230766D01*
X231432Y53700D01*
Y52367D01*
X230766Y51701D01*
X229433D01*
X228766Y52367D01*
X280284Y131183D02*
Y127850D01*
X280950Y127184D01*
X282283D01*
X282950Y127850D01*
Y131183D01*
X286948Y127184D02*
X284282D01*
X286948Y129850D01*
Y130516D01*
X286282Y131183D01*
X284949D01*
X284282Y130516D01*
X252605Y230499D02*
X255271D01*
X253938D01*
Y226501D01*
X256603D02*
Y230499D01*
X258603D01*
X259269Y229833D01*
Y228500D01*
X258603Y227834D01*
X256603D01*
X260602Y226501D02*
X261935D01*
X261269D01*
Y230499D01*
X260602Y229833D01*
X263934D02*
X264601Y230499D01*
X265934D01*
X266600Y229833D01*
Y227167D01*
X265934Y226501D01*
X264601D01*
X263934Y227167D01*
Y229833D01*
X255171Y250017D02*
X257837D01*
X256504D01*
Y246019D01*
X259170D02*
Y250017D01*
X261169D01*
X261835Y249351D01*
Y248018D01*
X261169Y247352D01*
X259170D01*
X263168Y246685D02*
X263835Y246019D01*
X265168D01*
X265834Y246685D01*
Y249351D01*
X265168Y250017D01*
X263835D01*
X263168Y249351D01*
Y248685D01*
X263835Y248018D01*
X265834D01*
X28384Y104883D02*
X31050D01*
X29717D01*
Y100884D01*
X32383D02*
Y104883D01*
X34382D01*
X35048Y104216D01*
Y102883D01*
X34382Y102217D01*
X32383D01*
X36381Y104883D02*
X39047D01*
Y104216D01*
X36381Y101550D01*
Y100884D01*
X233968Y15099D02*
X236634D01*
X235301D01*
Y11101D01*
X237967D02*
Y15099D01*
X239967D01*
X240633Y14433D01*
Y13100D01*
X239967Y12433D01*
X237967D01*
X244632Y15099D02*
X243299Y14433D01*
X241966Y13100D01*
Y11767D01*
X242632Y11101D01*
X243965D01*
X244632Y11767D01*
Y12433D01*
X243965Y13100D01*
X241966D01*
X264168Y15299D02*
X266834D01*
X265501D01*
Y11301D01*
X268167D02*
Y15299D01*
X270166D01*
X270833Y14633D01*
Y13300D01*
X270166Y12633D01*
X268167D01*
X274832Y15299D02*
X272166D01*
Y13300D01*
X273499Y13966D01*
X274165D01*
X274832Y13300D01*
Y11967D01*
X274165Y11301D01*
X272832D01*
X272166Y11967D01*
X354713Y111299D02*
X357379D01*
X356046D01*
Y107301D01*
X358712D02*
Y111299D01*
X360711D01*
X361378Y110633D01*
Y109300D01*
X360711Y108634D01*
X358712D01*
X362710Y110633D02*
X363377Y111299D01*
X364710D01*
X365376Y110633D01*
Y109967D01*
X364710Y109300D01*
X364043D01*
X364710D01*
X365376Y108634D01*
Y107967D01*
X364710Y107301D01*
X363377D01*
X362710Y107967D01*
X354968Y89560D02*
X357634D01*
X356301D01*
Y85561D01*
X358967D02*
Y89560D01*
X360966D01*
X361633Y88894D01*
Y87561D01*
X360966Y86894D01*
X358967D01*
X365632Y85561D02*
X362966D01*
X365632Y88227D01*
Y88894D01*
X364965Y89560D01*
X363632D01*
X362966Y88894D01*
X282668Y354481D02*
Y358480D01*
X284668D01*
X285334Y357813D01*
Y356480D01*
X284668Y355814D01*
X282668D01*
X284001D02*
X285334Y354481D01*
X289333D02*
X286667D01*
X289333Y357147D01*
Y357813D01*
X288666Y358480D01*
X287333D01*
X286667Y357813D01*
X293332Y358480D02*
X291999Y357813D01*
X290666Y356480D01*
Y355147D01*
X291332Y354481D01*
X292665D01*
X293332Y355147D01*
Y355814D01*
X292665Y356480D01*
X290666D01*
X230668Y354361D02*
Y358359D01*
X232668D01*
X233334Y357693D01*
Y356360D01*
X232668Y355693D01*
X230668D01*
X232001D02*
X233334Y354361D01*
X237333D02*
X234667D01*
X237333Y357026D01*
Y357693D01*
X236666Y358359D01*
X235334D01*
X234667Y357693D01*
X241332Y358359D02*
X238666D01*
Y356360D01*
X239999Y357026D01*
X240665D01*
X241332Y356360D01*
Y355027D01*
X240665Y354361D01*
X239332D01*
X238666Y355027D01*
X203184Y225484D02*
Y229483D01*
X205183D01*
X205850Y228816D01*
Y227483D01*
X205183Y226817D01*
X203184D01*
X204517D02*
X205850Y225484D01*
X209848D02*
X207183D01*
X209848Y228150D01*
Y228816D01*
X209182Y229483D01*
X207849D01*
X207183Y228816D01*
X213181Y225484D02*
Y229483D01*
X211181Y227483D01*
X213847D01*
X66484Y289984D02*
Y293983D01*
X68483D01*
X69150Y293316D01*
Y291983D01*
X68483Y291317D01*
X66484D01*
X67817D02*
X69150Y289984D01*
X73148D02*
X70482D01*
X73148Y292650D01*
Y293316D01*
X72482Y293983D01*
X71149D01*
X70482Y293316D01*
X74481D02*
X75148Y293983D01*
X76481D01*
X77147Y293316D01*
Y292650D01*
X76481Y291983D01*
X75814D01*
X76481D01*
X77147Y291317D01*
Y290650D01*
X76481Y289984D01*
X75148D01*
X74481Y290650D01*
X203284Y195384D02*
Y199382D01*
X205283D01*
X205950Y198716D01*
Y197383D01*
X205283Y196717D01*
X203284D01*
X204617D02*
X205950Y195384D01*
X209948D02*
X207282D01*
X209948Y198050D01*
Y198716D01*
X209282Y199382D01*
X207949D01*
X207282Y198716D01*
X213947Y195384D02*
X211281D01*
X213947Y198050D01*
Y198716D01*
X213281Y199382D01*
X211948D01*
X211281Y198716D01*
X66484Y326684D02*
Y330682D01*
X68483D01*
X69150Y330016D01*
Y328683D01*
X68483Y328017D01*
X66484D01*
X67817D02*
X69150Y326684D01*
X73148D02*
X70482D01*
X73148Y329350D01*
Y330016D01*
X72482Y330682D01*
X71149D01*
X70482Y330016D01*
X74481Y326684D02*
X75814D01*
X75148D01*
Y330682D01*
X74481Y330016D01*
X109584Y311484D02*
Y315482D01*
X111583D01*
X112250Y314816D01*
Y313483D01*
X111583Y312817D01*
X109584D01*
X110917D02*
X112250Y311484D01*
X116248D02*
X113583D01*
X116248Y314150D01*
Y314816D01*
X115582Y315482D01*
X114249D01*
X113583Y314816D01*
X117581D02*
X118248Y315482D01*
X119581D01*
X120247Y314816D01*
Y312150D01*
X119581Y311484D01*
X118248D01*
X117581Y312150D01*
Y314816D01*
X225635Y94901D02*
Y98899D01*
X227634D01*
X228300Y98233D01*
Y96900D01*
X227634Y96234D01*
X225635D01*
X226968D02*
X228300Y94901D01*
X229633D02*
X230966D01*
X230300D01*
Y98899D01*
X229633Y98233D01*
X232966D02*
X233632Y98899D01*
X234965D01*
X235631Y98233D01*
Y97566D01*
X234965Y96900D01*
X234299D01*
X234965D01*
X235631Y96234D01*
Y95567D01*
X234965Y94901D01*
X233632D01*
X232966Y95567D01*
X260802Y140214D02*
Y144212D01*
X262801D01*
X263468Y143546D01*
Y142213D01*
X262801Y141547D01*
X260802D01*
X262135D02*
X263468Y140214D01*
X264800D02*
X266133D01*
X265467D01*
Y144212D01*
X264800Y143546D01*
X270798Y140214D02*
X268133D01*
X270798Y142879D01*
Y143546D01*
X270132Y144212D01*
X268799D01*
X268133Y143546D01*
X344984Y152084D02*
Y156082D01*
X346983D01*
X347650Y155416D01*
Y154083D01*
X346983Y153417D01*
X344984D01*
X346317D02*
X347650Y152084D01*
X348983D02*
X350315D01*
X349649D01*
Y156082D01*
X348983Y155416D01*
X352315Y152084D02*
X353648D01*
X352981D01*
Y156082D01*
X352315Y155416D01*
X343584Y135584D02*
Y139583D01*
X345583D01*
X346250Y138916D01*
Y137583D01*
X345583Y136917D01*
X343584D01*
X344917D02*
X346250Y135584D01*
X347583D02*
X348915D01*
X348249D01*
Y139583D01*
X347583Y138916D01*
X350915D02*
X351581Y139583D01*
X352914D01*
X353581Y138916D01*
Y136250D01*
X352914Y135584D01*
X351581D01*
X350915Y136250D01*
Y138916D01*
X347084Y119084D02*
Y123082D01*
X349083D01*
X349750Y122416D01*
Y121083D01*
X349083Y120417D01*
X347084D01*
X348417D02*
X349750Y119084D01*
X351082Y119750D02*
X351749Y119084D01*
X353082D01*
X353748Y119750D01*
Y122416D01*
X353082Y123082D01*
X351749D01*
X351082Y122416D01*
Y121750D01*
X351749Y121083D01*
X353748D01*
X226184Y86284D02*
Y90282D01*
X228183D01*
X228850Y89616D01*
Y88283D01*
X228183Y87617D01*
X226184D01*
X227517D02*
X228850Y86284D01*
X230183Y89616D02*
X230849Y90282D01*
X232182D01*
X232848Y89616D01*
Y88950D01*
X232182Y88283D01*
X232848Y87617D01*
Y86950D01*
X232182Y86284D01*
X230849D01*
X230183Y86950D01*
Y87617D01*
X230849Y88283D01*
X230183Y88950D01*
Y89616D01*
X230849Y88283D02*
X232182D01*
X254284Y41584D02*
Y45583D01*
X256283D01*
X256950Y44916D01*
Y43583D01*
X256283Y42917D01*
X254284D01*
X255617D02*
X256950Y41584D01*
X258282Y45583D02*
X260948D01*
Y44916D01*
X258282Y42250D01*
Y41584D01*
X235984Y86284D02*
Y90282D01*
X237983D01*
X238650Y89616D01*
Y88283D01*
X237983Y87617D01*
X235984D01*
X237317D02*
X238650Y86284D01*
X242648Y90282D02*
X241315Y89616D01*
X239983Y88283D01*
Y86950D01*
X240649Y86284D01*
X241982D01*
X242648Y86950D01*
Y87617D01*
X241982Y88283D01*
X239983D01*
X256368Y86301D02*
Y90299D01*
X258367D01*
X259034Y89633D01*
Y88300D01*
X258367Y87634D01*
X256368D01*
X257701D02*
X259034Y86301D01*
X263032Y90299D02*
X260367D01*
Y88300D01*
X261699Y88966D01*
X262366D01*
X263032Y88300D01*
Y86967D01*
X262366Y86301D01*
X261033D01*
X260367Y86967D01*
X245684Y86284D02*
Y90282D01*
X247683D01*
X248350Y89616D01*
Y88283D01*
X247683Y87617D01*
X245684D01*
X247017D02*
X248350Y86284D01*
X251682D02*
Y90282D01*
X249682Y88283D01*
X252348D01*
X280668Y30101D02*
Y34099D01*
X282667D01*
X283334Y33433D01*
Y32100D01*
X282667Y31434D01*
X280668D01*
X282001D02*
X283334Y30101D01*
X284666Y33433D02*
X285333Y34099D01*
X286666D01*
X287332Y33433D01*
Y32766D01*
X286666Y32100D01*
X285999D01*
X286666D01*
X287332Y31434D01*
Y30767D01*
X286666Y30101D01*
X285333D01*
X284666Y30767D01*
X361834Y62201D02*
Y66199D01*
X363834D01*
X364500Y65533D01*
Y64200D01*
X363834Y63534D01*
X361834D01*
X363167D02*
X364500Y62201D01*
X365833D02*
X367166D01*
X366499D01*
Y66199D01*
X365833Y65533D01*
X68584Y364084D02*
Y368082D01*
X70583D01*
X71250Y367416D01*
Y366083D01*
X70583Y365417D01*
X68584D01*
X75248Y364084D02*
X72583D01*
X75248Y366750D01*
Y367416D01*
X74582Y368082D01*
X73249D01*
X72583Y367416D01*
X191284Y364291D02*
Y368290D01*
X193283D01*
X193950Y367624D01*
Y366291D01*
X193283Y365624D01*
X191284D01*
X195282Y364291D02*
X196615D01*
X195949D01*
Y368290D01*
X195282Y367624D01*
X330284Y166683D02*
Y162684D01*
X332950D01*
X336282D02*
Y166683D01*
X334282Y164683D01*
X336948D01*
X292284Y166583D02*
Y162584D01*
X294950D01*
X296283Y165916D02*
X296949Y166583D01*
X298282D01*
X298948Y165916D01*
Y165250D01*
X298282Y164583D01*
X297615D01*
X298282D01*
X298948Y163917D01*
Y163250D01*
X298282Y162584D01*
X296949D01*
X296283Y163250D01*
X232984Y328082D02*
Y324084D01*
X235650D01*
X239648D02*
X236982D01*
X239648Y326750D01*
Y327416D01*
X238982Y328082D01*
X237649D01*
X236982Y327416D01*
X284084Y328082D02*
Y324084D01*
X286750D01*
X288083D02*
X289415D01*
X288749D01*
Y328082D01*
X288083Y327416D01*
X306350Y359682D02*
X305017D01*
X305683D01*
Y356350D01*
X305017Y355684D01*
X304350D01*
X303684Y356350D01*
X307682Y359016D02*
X308349Y359682D01*
X309682D01*
X310348Y359016D01*
Y358350D01*
X309682Y357683D01*
X309015D01*
X309682D01*
X310348Y357017D01*
Y356350D01*
X309682Y355684D01*
X308349D01*
X307682Y356350D01*
X107750Y368283D02*
X106417D01*
X107083D01*
Y364950D01*
X106417Y364284D01*
X105750D01*
X105084Y364950D01*
X111748Y364284D02*
X109082D01*
X111748Y366950D01*
Y367616D01*
X111082Y368283D01*
X109749D01*
X109082Y367616D01*
X272300Y358480D02*
Y354481D01*
X274300D01*
X274966Y355147D01*
Y357813D01*
X274300Y358480D01*
X272300D01*
X278965D02*
X277632Y357813D01*
X276299Y356480D01*
Y355147D01*
X276965Y354481D01*
X278298D01*
X278965Y355147D01*
Y355814D01*
X278298Y356480D01*
X276299D01*
X244384Y358480D02*
Y354481D01*
X246383D01*
X247050Y355147D01*
Y357813D01*
X246383Y358480D01*
X244384D01*
X251048D02*
X248382D01*
Y356480D01*
X249715Y357147D01*
X250382D01*
X251048Y356480D01*
Y355147D01*
X250382Y354481D01*
X249049D01*
X248382Y355147D01*
X220684Y229583D02*
Y225584D01*
X222683D01*
X223350Y226250D01*
Y228916D01*
X222683Y229583D01*
X220684D01*
X226682Y225584D02*
Y229583D01*
X224682Y227583D01*
X227348D01*
X220684Y199583D02*
Y195584D01*
X222683D01*
X223350Y196250D01*
Y198916D01*
X222683Y199583D01*
X220684D01*
X224682Y198916D02*
X225349Y199583D01*
X226682D01*
X227348Y198916D01*
Y198250D01*
X226682Y197583D01*
X226015D01*
X226682D01*
X227348Y196917D01*
Y196250D01*
X226682Y195584D01*
X225349D01*
X224682Y196250D01*
X302768Y97491D02*
Y93492D01*
X304767D01*
X305434Y94159D01*
Y96824D01*
X304767Y97491D01*
X302768D01*
X309432Y93492D02*
X306767D01*
X309432Y96158D01*
Y96824D01*
X308766Y97491D01*
X307433D01*
X306767Y96824D01*
X303434Y144212D02*
Y140214D01*
X305434D01*
X306100Y140880D01*
Y143546D01*
X305434Y144212D01*
X303434D01*
X307433Y140214D02*
X308766D01*
X308099D01*
Y144212D01*
X307433Y143546D01*
X79450Y199216D02*
X78783Y199882D01*
X77450D01*
X76784Y199216D01*
Y196550D01*
X77450Y195884D01*
X78783D01*
X79450Y196550D01*
X83448Y199882D02*
X80783D01*
Y197883D01*
X82115Y198550D01*
X82782D01*
X83448Y197883D01*
Y196550D01*
X82782Y195884D01*
X81449D01*
X80783Y196550D01*
X86781Y195884D02*
Y199882D01*
X84781Y197883D01*
X87447D01*
X22450Y207616D02*
X21783Y208282D01*
X20450D01*
X19784Y207616D01*
Y204950D01*
X20450Y204284D01*
X21783D01*
X22450Y204950D01*
X26448Y208282D02*
X23783D01*
Y206283D01*
X25115Y206950D01*
X25782D01*
X26448Y206283D01*
Y204950D01*
X25782Y204284D01*
X24449D01*
X23783Y204950D01*
X27781Y207616D02*
X28448Y208282D01*
X29781D01*
X30447Y207616D01*
Y206950D01*
X29781Y206283D01*
X29114D01*
X29781D01*
X30447Y205617D01*
Y204950D01*
X29781Y204284D01*
X28448D01*
X27781Y204950D01*
X30350Y263216D02*
X29683Y263882D01*
X28350D01*
X27684Y263216D01*
Y260550D01*
X28350Y259884D01*
X29683D01*
X30350Y260550D01*
X34348Y263882D02*
X31683D01*
Y261883D01*
X33015Y262550D01*
X33682D01*
X34348Y261883D01*
Y260550D01*
X33682Y259884D01*
X32349D01*
X31683Y260550D01*
X38347Y259884D02*
X35681D01*
X38347Y262550D01*
Y263216D01*
X37681Y263882D01*
X36348D01*
X35681Y263216D01*
X290950Y215916D02*
X290283Y216582D01*
X288950D01*
X288284Y215916D01*
Y213250D01*
X288950Y212584D01*
X290283D01*
X290950Y213250D01*
X294948Y216582D02*
X292283D01*
Y214583D01*
X293615Y215250D01*
X294282D01*
X294948Y214583D01*
Y213250D01*
X294282Y212584D01*
X292949D01*
X292283Y213250D01*
X296281Y212584D02*
X297614D01*
X296948D01*
Y216582D01*
X296281Y215916D01*
X336650D02*
X335983Y216582D01*
X334650D01*
X333984Y215916D01*
Y213250D01*
X334650Y212584D01*
X335983D01*
X336650Y213250D01*
X340648Y216582D02*
X337983D01*
Y214583D01*
X339315Y215250D01*
X339982D01*
X340648Y214583D01*
Y213250D01*
X339982Y212584D01*
X338649D01*
X337983Y213250D01*
X341981Y215916D02*
X342648Y216582D01*
X343981D01*
X344647Y215916D01*
Y213250D01*
X343981Y212584D01*
X342648D01*
X341981Y213250D01*
Y215916D01*
X306850D02*
X306183Y216582D01*
X304850D01*
X304184Y215916D01*
Y213250D01*
X304850Y212584D01*
X306183D01*
X306850Y213250D01*
X310182Y212584D02*
Y216582D01*
X308183Y214583D01*
X310848D01*
X312181Y213250D02*
X312848Y212584D01*
X314181D01*
X314847Y213250D01*
Y215916D01*
X314181Y216582D01*
X312848D01*
X312181Y215916D01*
Y215250D01*
X312848Y214583D01*
X314847D01*
X320850Y216016D02*
X320183Y216683D01*
X318850D01*
X318184Y216016D01*
Y213350D01*
X318850Y212684D01*
X320183D01*
X320850Y213350D01*
X324182Y212684D02*
Y216683D01*
X322182Y214683D01*
X324848D01*
X326181Y216016D02*
X326848Y216683D01*
X328181D01*
X328847Y216016D01*
Y215350D01*
X328181Y214683D01*
X328847Y214017D01*
Y213350D01*
X328181Y212684D01*
X326848D01*
X326181Y213350D01*
Y214017D01*
X326848Y214683D01*
X326181Y215350D01*
Y216016D01*
X326848Y214683D02*
X328181D01*
X254850Y154016D02*
X254183Y154683D01*
X252850D01*
X252184Y154016D01*
Y151350D01*
X252850Y150684D01*
X254183D01*
X254850Y151350D01*
X258182Y150684D02*
Y154683D01*
X256183Y152683D01*
X258848D01*
X262847Y154683D02*
X260181D01*
Y152683D01*
X261514Y153350D01*
X262181D01*
X262847Y152683D01*
Y151350D01*
X262181Y150684D01*
X260848D01*
X260181Y151350D01*
X254850Y185116D02*
X254183Y185783D01*
X252850D01*
X252184Y185116D01*
Y182450D01*
X252850Y181784D01*
X254183D01*
X254850Y182450D01*
X258182Y181784D02*
Y185783D01*
X256183Y183783D01*
X258848D01*
X262181Y181784D02*
Y185783D01*
X260181Y183783D01*
X262847D01*
X215450Y240116D02*
X214783Y240782D01*
X213450D01*
X212784Y240116D01*
Y237450D01*
X213450Y236784D01*
X214783D01*
X215450Y237450D01*
X218782Y236784D02*
Y240782D01*
X216782Y238783D01*
X219448D01*
X220781Y240116D02*
X221448Y240782D01*
X222781D01*
X223447Y240116D01*
Y239450D01*
X222781Y238783D01*
X222114D01*
X222781D01*
X223447Y238117D01*
Y237450D01*
X222781Y236784D01*
X221448D01*
X220781Y237450D01*
X215450Y268216D02*
X214783Y268882D01*
X213450D01*
X212784Y268216D01*
Y265550D01*
X213450Y264884D01*
X214783D01*
X215450Y265550D01*
X218782Y264884D02*
Y268882D01*
X216782Y266883D01*
X219448D01*
X223447Y264884D02*
X220781D01*
X223447Y267550D01*
Y268216D01*
X222781Y268882D01*
X221448D01*
X220781Y268216D01*
X233650Y249916D02*
X232983Y250583D01*
X231650D01*
X230984Y249916D01*
Y247250D01*
X231650Y246584D01*
X232983D01*
X233650Y247250D01*
X234982Y249916D02*
X235649Y250583D01*
X236982D01*
X237648Y249916D01*
Y249250D01*
X236982Y248583D01*
X236315D01*
X236982D01*
X237648Y247917D01*
Y247250D01*
X236982Y246584D01*
X235649D01*
X234982Y247250D01*
X238981D02*
X239648Y246584D01*
X240981D01*
X241647Y247250D01*
Y249916D01*
X240981Y250583D01*
X239648D01*
X238981Y249916D01*
Y249250D01*
X239648Y248583D01*
X241647D01*
X309950Y291675D02*
X309283Y292342D01*
X307950D01*
X307284Y291675D01*
Y289009D01*
X307950Y288343D01*
X309283D01*
X309950Y289009D01*
X311282Y291675D02*
X311949Y292342D01*
X313282D01*
X313948Y291675D01*
Y291009D01*
X313282Y290342D01*
X312615D01*
X313282D01*
X313948Y289676D01*
Y289009D01*
X313282Y288343D01*
X311949D01*
X311282Y289009D01*
X317281Y288343D02*
Y292342D01*
X315281Y290342D01*
X317947D01*
X156534Y268033D02*
X155868Y268699D01*
X154535D01*
X153868Y268033D01*
Y265367D01*
X154535Y264701D01*
X155868D01*
X156534Y265367D01*
X157867Y268033D02*
X158534Y268699D01*
X159866D01*
X160533Y268033D01*
Y267366D01*
X159866Y266700D01*
X159200D01*
X159866D01*
X160533Y266034D01*
Y265367D01*
X159866Y264701D01*
X158534D01*
X157867Y265367D01*
X164532Y264701D02*
X161866D01*
X164532Y267366D01*
Y268033D01*
X163865Y268699D01*
X162532D01*
X161866Y268033D01*
X191434Y237133D02*
X190768Y237799D01*
X189435D01*
X188768Y237133D01*
Y234467D01*
X189435Y233801D01*
X190768D01*
X191434Y234467D01*
X192767Y237133D02*
X193433Y237799D01*
X194766D01*
X195433Y237133D01*
Y236466D01*
X194766Y235800D01*
X194100D01*
X194766D01*
X195433Y235134D01*
Y234467D01*
X194766Y233801D01*
X193433D01*
X192767Y234467D01*
X196766Y237133D02*
X197432Y237799D01*
X198765D01*
X199432Y237133D01*
Y234467D01*
X198765Y233801D01*
X197432D01*
X196766Y234467D01*
Y237133D01*
X111250Y178516D02*
X110583Y179183D01*
X109250D01*
X108584Y178516D01*
Y175850D01*
X109250Y175184D01*
X110583D01*
X111250Y175850D01*
X115248Y175184D02*
X112583D01*
X115248Y177850D01*
Y178516D01*
X114582Y179183D01*
X113249D01*
X112583Y178516D01*
X116581Y175850D02*
X117248Y175184D01*
X118581D01*
X119247Y175850D01*
Y178516D01*
X118581Y179183D01*
X117248D01*
X116581Y178516D01*
Y177850D01*
X117248Y177183D01*
X119247D01*
X163934Y255072D02*
X163268Y255739D01*
X161935D01*
X161268Y255072D01*
Y252406D01*
X161935Y251740D01*
X163268D01*
X163934Y252406D01*
X167933Y251740D02*
X165267D01*
X167933Y254406D01*
Y255072D01*
X167266Y255739D01*
X165934D01*
X165267Y255072D01*
X169266Y255739D02*
X171932D01*
Y255072D01*
X169266Y252406D01*
Y251740D01*
X116242Y257168D02*
X115576Y257834D01*
X114243D01*
X113576Y257168D01*
Y254502D01*
X114243Y253835D01*
X115576D01*
X116242Y254502D01*
X120241Y253835D02*
X117575D01*
X120241Y256501D01*
Y257168D01*
X119574Y257834D01*
X118242D01*
X117575Y257168D01*
X124240Y257834D02*
X122907Y257168D01*
X121574Y255835D01*
Y254502D01*
X122240Y253835D01*
X123573D01*
X124240Y254502D01*
Y255168D01*
X123573Y255835D01*
X121574D01*
X92850Y314816D02*
X92183Y315482D01*
X90850D01*
X90184Y314816D01*
Y312150D01*
X90850Y311484D01*
X92183D01*
X92850Y312150D01*
X96848Y311484D02*
X94182D01*
X96848Y314150D01*
Y314816D01*
X96182Y315482D01*
X94849D01*
X94182Y314816D01*
X100847Y315482D02*
X98181D01*
Y313483D01*
X99514Y314150D01*
X100181D01*
X100847Y313483D01*
Y312150D01*
X100181Y311484D01*
X98848D01*
X98181Y312150D01*
X180650Y126816D02*
X179983Y127482D01*
X178650D01*
X177984Y126816D01*
Y124150D01*
X178650Y123484D01*
X179983D01*
X180650Y124150D01*
X184648Y123484D02*
X181983D01*
X184648Y126150D01*
Y126816D01*
X183982Y127482D01*
X182649D01*
X181983Y126816D01*
X188647Y123484D02*
X185981D01*
X188647Y126150D01*
Y126816D01*
X187981Y127482D01*
X186648D01*
X185981Y126816D01*
X45850Y102416D02*
X45183Y103083D01*
X43850D01*
X43184Y102416D01*
Y99750D01*
X43850Y99084D01*
X45183D01*
X45850Y99750D01*
X49848Y99084D02*
X47183D01*
X49848Y101750D01*
Y102416D01*
X49182Y103083D01*
X47849D01*
X47183Y102416D01*
X51181Y99084D02*
X52514D01*
X51848D01*
Y103083D01*
X51181Y102416D01*
X333264Y137083D02*
X332598Y137749D01*
X331265D01*
X330599Y137083D01*
Y134417D01*
X331265Y133751D01*
X332598D01*
X333264Y134417D01*
X337263Y133751D02*
X334597D01*
X337263Y136416D01*
Y137083D01*
X336597Y137749D01*
X335264D01*
X334597Y137083D01*
X338596D02*
X339263Y137749D01*
X340596D01*
X341262Y137083D01*
Y134417D01*
X340596Y133751D01*
X339263D01*
X338596Y134417D01*
Y137083D01*
X333598Y146983D02*
X332931Y147649D01*
X331598D01*
X330932Y146983D01*
Y144317D01*
X331598Y143651D01*
X332931D01*
X333598Y144317D01*
X334931Y143651D02*
X336263D01*
X335597D01*
Y147649D01*
X334931Y146983D01*
X338263Y144317D02*
X338929Y143651D01*
X340262D01*
X340929Y144317D01*
Y146983D01*
X340262Y147649D01*
X338929D01*
X338263Y146983D01*
Y146317D01*
X338929Y145650D01*
X340929D01*
X333598Y157033D02*
X332931Y157699D01*
X331598D01*
X330932Y157033D01*
Y154367D01*
X331598Y153701D01*
X332931D01*
X333598Y154367D01*
X334931Y153701D02*
X336263D01*
X335597D01*
Y157699D01*
X334931Y157033D01*
X338263D02*
X338929Y157699D01*
X340262D01*
X340929Y157033D01*
Y156367D01*
X340262Y155700D01*
X340929Y155034D01*
Y154367D01*
X340262Y153701D01*
X338929D01*
X338263Y154367D01*
Y155034D01*
X338929Y155700D01*
X338263Y156367D01*
Y157033D01*
X338929Y155700D02*
X340262D01*
X238450Y154016D02*
X237783Y154683D01*
X236450D01*
X235784Y154016D01*
Y151350D01*
X236450Y150684D01*
X237783D01*
X238450Y151350D01*
X239783Y150684D02*
X241115D01*
X240449D01*
Y154683D01*
X239783Y154016D01*
X243115Y154683D02*
X245781D01*
Y154016D01*
X243115Y151350D01*
Y150684D01*
X238350Y185116D02*
X237683Y185783D01*
X236350D01*
X235684Y185116D01*
Y182450D01*
X236350Y181784D01*
X237683D01*
X238350Y182450D01*
X239683Y181784D02*
X241015D01*
X240349D01*
Y185783D01*
X239683Y185116D01*
X245681Y185783D02*
X244348Y185116D01*
X243015Y183783D01*
Y182450D01*
X243681Y181784D01*
X245014D01*
X245681Y182450D01*
Y183117D01*
X245014Y183783D01*
X243015D01*
X192693Y27433D02*
X192027Y28099D01*
X190694D01*
X190028Y27433D01*
Y24767D01*
X190694Y24101D01*
X192027D01*
X192693Y24767D01*
X194026Y24101D02*
X195359D01*
X194693D01*
Y28099D01*
X194026Y27433D01*
X200024Y28099D02*
X197359D01*
Y26100D01*
X198691Y26766D01*
X199358D01*
X200024Y26100D01*
Y24767D01*
X199358Y24101D01*
X198025D01*
X197359Y24767D01*
X192693Y36617D02*
X192027Y37283D01*
X190694D01*
X190028Y36617D01*
Y33951D01*
X190694Y33285D01*
X192027D01*
X192693Y33951D01*
X194026Y33285D02*
X195359D01*
X194693D01*
Y37283D01*
X194026Y36617D01*
X199358Y33285D02*
Y37283D01*
X197359Y35284D01*
X200024D01*
X338850Y128416D02*
X338183Y129083D01*
X336850D01*
X336184Y128416D01*
Y125750D01*
X336850Y125084D01*
X338183D01*
X338850Y125750D01*
X340182Y125084D02*
X341515D01*
X340849D01*
Y129083D01*
X340182Y128416D01*
X346181Y125084D02*
X343515D01*
X346181Y127750D01*
Y128416D01*
X345514Y129083D01*
X344181D01*
X343515Y128416D01*
X192085Y55194D02*
X191419Y55860D01*
X190086D01*
X189419Y55194D01*
Y52528D01*
X190086Y51861D01*
X191419D01*
X192085Y52528D01*
X193418Y51861D02*
X194751D01*
X194085D01*
Y55860D01*
X193418Y55194D01*
X196750D02*
X197417Y55860D01*
X198750D01*
X199416Y55194D01*
Y52528D01*
X198750Y51861D01*
X197417D01*
X196750Y52528D01*
Y55194D01*
X208634Y79033D02*
X207967Y79699D01*
X206634D01*
X205968Y79033D01*
Y76367D01*
X206634Y75701D01*
X207967D01*
X208634Y76367D01*
X212632Y79699D02*
X211299Y79033D01*
X209966Y77700D01*
Y76367D01*
X210633Y75701D01*
X211966D01*
X212632Y76367D01*
Y77034D01*
X211966Y77700D01*
X209966D01*
X256950Y56316D02*
X256283Y56982D01*
X254950D01*
X254284Y56316D01*
Y53650D01*
X254950Y52984D01*
X256283D01*
X256950Y53650D01*
X260948Y56982D02*
X258282D01*
Y54983D01*
X259615Y55650D01*
X260282D01*
X260948Y54983D01*
Y53650D01*
X260282Y52984D01*
X258949D01*
X258282Y53650D01*
X257050Y33916D02*
X256383Y34582D01*
X255050D01*
X254384Y33916D01*
Y31250D01*
X255050Y30584D01*
X256383D01*
X257050Y31250D01*
X260382Y30584D02*
Y34582D01*
X258383Y32583D01*
X261048D01*
X315745Y31917D02*
X315079Y32583D01*
X313746D01*
X313080Y31917D01*
Y29251D01*
X313746Y28585D01*
X315079D01*
X315745Y29251D01*
X319744Y28585D02*
X317078D01*
X319744Y31250D01*
Y31917D01*
X319078Y32583D01*
X317745D01*
X317078Y31917D01*
X306250Y67716D02*
X305583Y68383D01*
X304250D01*
X303584Y67716D01*
Y65050D01*
X304250Y64384D01*
X305583D01*
X306250Y65050D01*
X307582Y64384D02*
X308915D01*
X308249D01*
Y68383D01*
X307582Y67716D01*
D11*
X314769Y103358D02*
G03*
X314769Y108043I0J2342D01*
G01*
X252942Y43143D02*
G03*
X252942Y38458I0J-2342D01*
G01*
X292257Y28242D02*
G03*
X296942Y28242I2342J0D01*
G01*
X49848Y116657D02*
G03*
X45163Y116657I-2342J0D01*
G01*
X142157Y93958D02*
G03*
X142157Y98642I0J2342D01*
G01*
X279700Y104718D02*
G03*
X279700Y109403I0J2342D01*
G01*
X244350Y271158D02*
G03*
X239665Y271158I-2342J0D01*
G01*
X103957Y298542D02*
G03*
X108642Y298542I2342J0D01*
G01*
D12*
X137900Y50800D02*
G03*
X137900Y50800I-492J0D01*
G01*
X105908Y50760D02*
G03*
X105908Y50760I-492J0D01*
G01*
X74295D02*
G03*
X74295Y50760I-492J0D01*
G01*
D13*
X98055Y151500D02*
G03*
X100556Y151500I1250J0D01*
G01*
X263326Y278903D02*
G03*
X263326Y283903I0J2500D01*
G01*
X247409Y105300D02*
X252740D01*
X247409Y113300D02*
X252740D01*
X252790Y105363D02*
Y113237D01*
X238040Y105363D02*
Y113237D01*
Y105300D02*
X243472D01*
X238040Y113300D02*
X243472D01*
X238140Y122800D02*
X243472D01*
X238140Y114800D02*
X243472D01*
X238090Y114863D02*
Y122737D01*
X252840Y114863D02*
Y122737D01*
X247409Y122800D02*
X252840D01*
X247409Y114800D02*
X252840D01*
X345200Y99428D02*
Y104860D01*
X337200Y99428D02*
Y104860D01*
X337263D02*
X345137D01*
X337263Y90110D02*
X345137D01*
X345200Y90160D02*
Y95491D01*
X337200Y90160D02*
Y95491D01*
X314769Y98700D02*
X334454D01*
Y112700D01*
X314769D02*
X334454D01*
X314769Y108042D02*
Y112700D01*
Y98700D02*
Y103357D01*
X309700Y266400D02*
X315131D01*
X309700Y258400D02*
X315131D01*
X309700Y258463D02*
Y266337D01*
X324450Y258463D02*
Y266337D01*
X319069Y266400D02*
X324400D01*
X319069Y258400D02*
X324400D01*
X343237Y266400D02*
X348568D01*
X343237Y258400D02*
X348568D01*
X343187Y258463D02*
Y266337D01*
X357937Y258463D02*
Y266337D01*
X352505Y266400D02*
X357937D01*
X352505Y258400D02*
X357937D01*
X217109Y41700D02*
X222540D01*
X217109Y49700D02*
X222540D01*
Y41763D02*
Y49637D01*
X207790Y41763D02*
Y49637D01*
X207840Y41700D02*
X213172D01*
X207840Y49700D02*
X213172D01*
X326579Y266400D02*
X332011D01*
X326579Y258400D02*
X332011D01*
X326579Y258463D02*
Y266337D01*
X341330Y258463D02*
Y266337D01*
X335948Y266400D02*
X341280D01*
X335948Y258400D02*
X341280D01*
X61184Y34435D02*
Y39766D01*
X69184Y34435D02*
Y39766D01*
X61247Y34385D02*
X69121D01*
X61247Y49135D02*
X69121D01*
X61184Y43703D02*
Y49135D01*
X69184Y43703D02*
Y49135D01*
X92684Y34835D02*
Y40166D01*
X100684Y34835D02*
Y40166D01*
X92747Y34785D02*
X100621D01*
X92747Y49535D02*
X100621D01*
X92684Y44103D02*
Y49535D01*
X100684Y44103D02*
Y49535D01*
X124784Y34735D02*
Y40066D01*
X132784Y34735D02*
Y40066D01*
X124847Y34685D02*
X132721D01*
X124847Y49435D02*
X132721D01*
X124784Y44003D02*
Y49435D01*
X132784Y44003D02*
Y49435D01*
X148528Y24578D02*
X153860D01*
X148528Y32578D02*
X153860D01*
X153910Y24641D02*
Y32515D01*
X139160Y24641D02*
Y32515D01*
Y24578D02*
X144591D01*
X139160Y32578D02*
X144591D01*
X115140D02*
X120472D01*
X115140Y24578D02*
X120472D01*
X115090Y24641D02*
Y32515D01*
X129840Y24641D02*
Y32515D01*
X124409Y32578D02*
X129840D01*
X124409Y24578D02*
X129840D01*
X83324Y32694D02*
X88656D01*
X83324Y24694D02*
X88656D01*
X83274Y24757D02*
Y32631D01*
X98024Y24757D02*
Y32631D01*
X92593Y32694D02*
X98024D01*
X92593Y24694D02*
X98024D01*
X141200Y41000D02*
Y43000D01*
X148100Y36095D02*
Y39146D01*
X143800Y36095D02*
X148100D01*
X148000Y44854D02*
Y47906D01*
X143800D02*
X148000D01*
X109208Y40960D02*
Y42960D01*
X116108Y36054D02*
Y39105D01*
X111808Y36054D02*
X116108D01*
X116008Y44814D02*
Y47865D01*
X111808D02*
X116008D01*
X77595Y40960D02*
Y42960D01*
X84495Y36054D02*
Y39105D01*
X80195Y36054D02*
X84495D01*
X84395Y44814D02*
Y47865D01*
X80195D02*
X84395D01*
X83380Y71500D02*
Y151500D01*
Y71500D02*
X115231D01*
Y151500D01*
X100556D02*
X115231D01*
X83380D02*
X98056D01*
X75209Y305714D02*
X80541D01*
X75209Y313714D02*
X80541D01*
X80591Y305777D02*
Y313651D01*
X65841Y305777D02*
Y313651D01*
Y305714D02*
X71272D01*
X65841Y313714D02*
X71272D01*
X75209Y269010D02*
X80541D01*
X75209Y277010D02*
X80541D01*
X80591Y269073D02*
Y276947D01*
X65841Y269073D02*
Y276947D01*
Y269010D02*
X71272D01*
X65841Y277010D02*
X71272D01*
X345031Y189638D02*
X350362D01*
X345031Y181638D02*
X350362D01*
X344981Y181701D02*
Y189575D01*
X359731Y181701D02*
Y189575D01*
X354299Y189638D02*
X359731D01*
X354299Y181638D02*
X359731D01*
X268800Y189600D02*
X274232D01*
X268800Y181600D02*
X274232D01*
X268800Y181663D02*
Y189537D01*
X283550Y181663D02*
Y189537D01*
X278169Y189600D02*
X283500D01*
X278169Y181600D02*
X283500D01*
X345131Y169909D02*
X350363D01*
X344331Y170709D02*
X345131Y169909D01*
X344331Y170709D02*
Y178009D01*
X345131Y178809D01*
X350363D01*
X360008Y169909D02*
Y178809D01*
X354300D02*
X360008D01*
X354300Y169909D02*
X360008D01*
X278479Y179100D02*
X283710D01*
X284510Y178300D01*
Y171000D02*
Y178300D01*
X283710Y170200D02*
X284510Y171000D01*
X278479Y170200D02*
X283710D01*
X268833D02*
Y179100D01*
Y170200D02*
X274542D01*
X268833Y179100D02*
X274542D01*
X296546Y138241D02*
Y141784D01*
X286310Y138241D02*
X296546D01*
Y152808D02*
Y156351D01*
X286310D02*
X296546D01*
X190877Y111887D02*
Y122713D01*
X225523Y111887D02*
Y122713D01*
X190877Y111887D02*
X225523D01*
X190877Y122713D02*
X225523D01*
X260800Y62400D02*
X300800D01*
X260800D02*
Y72400D01*
X255800D02*
X260800D01*
X255800D02*
Y82400D01*
X300800D01*
Y62400D02*
Y82400D01*
X225507Y69500D02*
Y74831D01*
X233507Y69500D02*
Y74831D01*
X225570Y69450D02*
X233444D01*
X225570Y84200D02*
X233444D01*
X225507Y78768D02*
Y84200D01*
X233507Y78768D02*
Y84200D01*
X243300Y78828D02*
Y84160D01*
X235300Y78828D02*
Y84160D01*
X235363Y84210D02*
X243237D01*
X235363Y69460D02*
X243237D01*
X243300D02*
Y74891D01*
X235300Y69460D02*
Y74891D01*
X245000Y69500D02*
Y74831D01*
X253000Y69500D02*
Y74831D01*
X245063Y69450D02*
X252937D01*
X245063Y84200D02*
X252937D01*
X245000Y78768D02*
Y84200D01*
X253000Y78768D02*
Y84200D01*
X233257Y47800D02*
X252942D01*
X233257Y33800D02*
Y47800D01*
Y33800D02*
X252942D01*
Y38457D01*
Y43142D02*
Y47800D01*
X332050Y20494D02*
X337381D01*
X332050Y28494D02*
X337381D01*
X337431Y20557D02*
Y28431D01*
X322681Y20557D02*
Y28431D01*
Y20494D02*
X328113D01*
X322681Y28494D02*
X328113D01*
X345200Y116309D02*
Y121640D01*
X337200Y116309D02*
Y121640D01*
X337263Y121690D02*
X345137D01*
X337263Y106940D02*
X345137D01*
X345200D02*
Y112372D01*
X337200Y106940D02*
Y112372D01*
X233414Y166092D02*
X238745D01*
X233414Y158092D02*
X238745D01*
X233364Y158155D02*
Y166029D01*
X248114Y158155D02*
Y166029D01*
X242682Y166092D02*
X248114D01*
X242682Y158092D02*
X248114D01*
X335609Y170100D02*
X341040D01*
X335609Y178100D02*
X341040D01*
Y170163D02*
Y178037D01*
X326290Y170163D02*
Y178037D01*
X326340Y170100D02*
X331672D01*
X326340Y178100D02*
X331672D01*
X288270Y178000D02*
X293701D01*
X288270Y170000D02*
X293701D01*
X288270Y170063D02*
Y177937D01*
X303020Y170063D02*
Y177937D01*
X297638Y178000D02*
X302970D01*
X297638Y170000D02*
X302970D01*
X309800Y286400D02*
X315131D01*
X309800Y278400D02*
X315131D01*
X309750Y278463D02*
Y286337D01*
X324500Y278463D02*
Y286337D01*
X319068Y286400D02*
X324500D01*
X319068Y278400D02*
X324500D01*
X319069Y268600D02*
X324500D01*
X319069Y276600D02*
X324500D01*
Y268663D02*
Y276537D01*
X309750Y268663D02*
Y276537D01*
X309800Y268600D02*
X315132D01*
X309800Y276600D02*
X315132D01*
X290600Y29960D02*
Y35291D01*
X298600Y29960D02*
Y35291D01*
X290663Y29910D02*
X298537D01*
X290663Y44660D02*
X298537D01*
X290600Y39228D02*
Y44660D01*
X298600Y39228D02*
Y44660D01*
X290616Y46240D02*
Y51572D01*
X298616Y46240D02*
Y51572D01*
X290679Y46190D02*
X298553D01*
X290679Y60940D02*
X298553D01*
X290616Y55509D02*
Y60940D01*
X298616Y55509D02*
Y60940D01*
X302300Y30040D02*
Y35372D01*
X310300Y30040D02*
Y35372D01*
X302363Y29990D02*
X310237D01*
X302363Y44740D02*
X310237D01*
X302300Y39309D02*
Y44740D01*
X310300Y39309D02*
Y44740D01*
X302200Y46240D02*
Y51572D01*
X310200Y46240D02*
Y51572D01*
X302263Y46190D02*
X310137D01*
X302263Y60940D02*
X310137D01*
X302200Y55509D02*
Y60940D01*
X310200Y55509D02*
Y60940D01*
X263326Y292600D02*
X304074D01*
X263326Y270600D02*
X304074D01*
Y292600D01*
X263326Y283903D02*
Y292600D01*
Y270600D02*
Y278903D01*
X335805Y278400D02*
X341237D01*
X335805Y286400D02*
X341237D01*
Y278463D02*
Y286337D01*
X326487Y278463D02*
Y286337D01*
X326537Y278400D02*
X331868D01*
X326537Y286400D02*
X331868D01*
X352505Y268700D02*
X357937D01*
X352505Y276700D02*
X357937D01*
Y268763D02*
Y276637D01*
X343187Y268763D02*
Y276637D01*
X343237Y268700D02*
X348568D01*
X343237Y276700D02*
X348568D01*
X352505Y278400D02*
X357937D01*
X352505Y286400D02*
X357937D01*
Y278463D02*
Y286337D01*
X343187Y278463D02*
Y286337D01*
X343237Y278400D02*
X348568D01*
X343237Y286400D02*
X348568D01*
X271628Y28600D02*
X277060D01*
X271628Y36600D02*
X277060D01*
Y28663D02*
Y36537D01*
X262310Y28663D02*
Y36537D01*
X262360Y28600D02*
X267691D01*
X262360Y36600D02*
X267691D01*
X262300Y47600D02*
X267632D01*
X262300Y39600D02*
X267632D01*
X262250Y39663D02*
Y47537D01*
X277000Y39663D02*
Y47537D01*
X271569Y47600D02*
X277000D01*
X271569Y39600D02*
X277000D01*
X271569Y50984D02*
X277000D01*
X271569Y58984D02*
X277000D01*
Y51047D02*
Y58921D01*
X262250Y51047D02*
Y58921D01*
X262300Y50984D02*
X267632D01*
X262300Y58984D02*
X267632D01*
X287600Y8557D02*
Y28242D01*
Y8557D02*
X301600D01*
Y28242D01*
X296942D02*
X301600D01*
X287600D02*
X292257D01*
X238100Y100900D02*
X243432D01*
X238100Y92900D02*
X243432D01*
X238050Y92963D02*
Y100837D01*
X252800Y92963D02*
Y100837D01*
X247369Y100900D02*
X252800D01*
X247369Y92900D02*
X252800D01*
X169510Y195867D02*
X173280Y199636D01*
X175166Y190210D02*
X178937Y193980D01*
X169519Y195787D02*
X175087Y190219D01*
X179949Y206217D02*
X185517Y200649D01*
X176064Y202420D02*
X179904Y206261D01*
X181720Y196764D02*
X185561Y200604D01*
X242669Y170400D02*
X248100D01*
X242669Y178400D02*
X248100D01*
Y170463D02*
Y178337D01*
X233350Y170463D02*
Y178337D01*
X233400Y170400D02*
X238732D01*
X233400Y178400D02*
X238732D01*
X253007Y250620D02*
Y255951D01*
X245007Y250620D02*
Y255951D01*
X245070Y256001D02*
X252944D01*
X245070Y241251D02*
X252944D01*
X253007D02*
Y246683D01*
X245007Y241251D02*
Y246683D01*
X59504Y245248D02*
X84280Y220472D01*
X34727D02*
X59504Y195695D01*
X84280Y220472D01*
X34727D02*
X59504Y245248D01*
X354996Y83961D02*
X358837Y80120D01*
X349339Y78304D02*
X353180Y74463D01*
X349384Y78349D02*
X354951Y83916D01*
X359813Y67919D02*
X365381Y73487D01*
X361620Y77337D02*
X365390Y73567D01*
X355963Y71680D02*
X359734Y67910D01*
X221198Y141209D02*
Y192391D01*
X196002Y141209D02*
Y192391D01*
Y141209D02*
X221198D01*
X196002Y192391D02*
X221198D01*
X357016Y146760D02*
Y152091D01*
X365016Y146760D02*
Y152091D01*
X357079Y146710D02*
X364953D01*
X357079Y161460D02*
X364953D01*
X357016Y156028D02*
Y161460D01*
X365016Y156028D02*
Y161460D01*
X169127Y121459D02*
X174559D01*
X169127Y129459D02*
X174559D01*
Y121522D02*
Y129396D01*
X159809Y121522D02*
Y129396D01*
X159859Y121459D02*
X165190D01*
X159859Y129459D02*
X165190D01*
X255800Y92400D02*
X275800D01*
Y137400D01*
X265800D02*
X275800D01*
X265800Y132400D02*
Y137400D01*
X255800Y132400D02*
X265800D01*
X255800Y92400D02*
Y132400D01*
X223700Y78868D02*
Y84300D01*
X215700Y78868D02*
Y84300D01*
X215763D02*
X223637D01*
X215763Y69550D02*
X223637D01*
X223700Y69600D02*
Y74931D01*
X215700Y69600D02*
Y74931D01*
X54506Y116657D02*
Y156342D01*
X40506D02*
X54506D01*
X40506Y116657D02*
Y156342D01*
Y116657D02*
X45163D01*
X49848D02*
X54506D01*
X153535Y134643D02*
X158966D01*
X153535Y142642D02*
X158966D01*
Y134705D02*
Y142579D01*
X144216Y134705D02*
Y142579D01*
X144266Y134643D02*
X149598D01*
X144266Y142642D02*
X149598D01*
X142157Y89300D02*
Y93957D01*
Y98642D02*
Y103300D01*
X181842D01*
Y89300D02*
Y103300D01*
X142157Y89300D02*
X181842D01*
X230068Y213300D02*
X235777D01*
X230068Y222200D02*
X235777D01*
Y213300D02*
Y222200D01*
X220900D02*
X226131D01*
X220100Y221400D02*
X220900Y222200D01*
X220100Y214100D02*
Y221400D01*
Y214100D02*
X220900Y213300D01*
X226131D01*
X113751Y198816D02*
X117592Y194976D01*
X108094Y193159D02*
X111935Y189319D01*
X108139Y193204D02*
X113707Y198772D01*
X118569Y182774D02*
X124136Y188342D01*
X120376Y192192D02*
X124146Y188422D01*
X114719Y186535D02*
X118489Y182765D01*
X99894Y243451D02*
X103735Y247292D01*
X105551Y237794D02*
X109392Y241635D01*
X99939Y243407D02*
X105507Y237839D01*
X110369Y253836D02*
X115936Y248269D01*
X106519Y250076D02*
X110289Y253846D01*
X112176Y244419D02*
X115946Y248189D01*
X177699Y255119D02*
X181539Y251278D01*
X172041Y249462D02*
X175882Y245621D01*
X172086Y249507D02*
X177654Y255074D01*
X182516Y239077D02*
X188084Y244645D01*
X184323Y248494D02*
X188093Y244724D01*
X178666Y242838D02*
X182436Y239068D01*
X191270Y245558D02*
X195111Y249399D01*
X196927Y239902D02*
X200768Y243742D01*
X191315Y245514D02*
X196882Y239946D01*
X201744Y255944D02*
X207312Y250376D01*
X197895Y252183D02*
X201665Y255953D01*
X203551Y246526D02*
X207321Y250296D01*
X165178Y271651D02*
X169018Y275491D01*
X170835Y265994D02*
X174675Y269834D01*
X165222Y271606D02*
X170790Y266038D01*
X175652Y282036D02*
X181220Y276468D01*
X171802Y278275D02*
X175572Y282045D01*
X177459Y272618D02*
X181229Y276388D01*
X49828Y106500D02*
X55260D01*
X49828Y114500D02*
X55260D01*
Y106563D02*
Y114437D01*
X40510Y106563D02*
Y114437D01*
X40560Y106500D02*
X45891D01*
X40560Y114500D02*
X45891D01*
X190700Y360908D02*
X220700D01*
X190700Y340908D02*
X220700D01*
Y360908D01*
X190700Y340908D02*
Y360908D01*
X313780Y160000D02*
X319211D01*
X313780Y152000D02*
X319211D01*
X313780Y152063D02*
Y159937D01*
X328530Y152063D02*
Y159937D01*
X323148Y160000D02*
X328480D01*
X323148Y152000D02*
X328480D01*
X259469Y170400D02*
X264900D01*
X259469Y178400D02*
X264900D01*
Y170463D02*
Y178337D01*
X250150Y170463D02*
Y178337D01*
X250200Y170400D02*
X255532D01*
X250200Y178400D02*
X255532D01*
X266000Y330100D02*
X271332D01*
X266000Y322100D02*
X271332D01*
X265950Y322163D02*
Y330037D01*
X280700Y322163D02*
Y330037D01*
X275269Y330100D02*
X280700D01*
X275269Y322100D02*
X280700D01*
X210760Y261500D02*
X216091D01*
X210760Y253500D02*
X216091D01*
X210710Y253563D02*
Y261437D01*
X225460Y253563D02*
Y261437D01*
X220028Y261500D02*
X225460D01*
X220028Y253500D02*
X225460D01*
X210760Y252185D02*
X216091D01*
X210760Y244185D02*
X216091D01*
X210710Y244248D02*
Y252122D01*
X225460Y244248D02*
Y252122D01*
X220028Y252185D02*
X225460D01*
X220028Y244185D02*
X225460D01*
X279700Y100061D02*
Y104718D01*
Y109403D02*
Y114061D01*
X299385D01*
Y100061D02*
Y114061D01*
X279700Y100061D02*
X299385D01*
X323148Y142150D02*
X328480D01*
X323148Y150150D02*
X328480D01*
X328530Y142213D02*
Y150087D01*
X313780Y142213D02*
Y150087D01*
Y142150D02*
X319211D01*
X313780Y150150D02*
X319211D01*
X207960Y31100D02*
X213291D01*
X207960Y23100D02*
X213291D01*
X207910Y23163D02*
Y31037D01*
X222660Y23163D02*
Y31037D01*
X217228Y31100D02*
X222660D01*
X217228Y23100D02*
X222660D01*
X207920Y40300D02*
X213251D01*
X207920Y32300D02*
X213251D01*
X207870Y32363D02*
Y40237D01*
X222620Y32363D02*
Y40237D01*
X217188Y40300D02*
X222620D01*
X217188Y32300D02*
X222620D01*
X207800Y58900D02*
X213131D01*
X207800Y50900D02*
X213131D01*
X207750Y50963D02*
Y58837D01*
X222500Y50963D02*
Y58837D01*
X217068Y58900D02*
X222500D01*
X217068Y50900D02*
X222500D01*
X323028Y132600D02*
X328360D01*
X323028Y140600D02*
X328360D01*
X328410Y132663D02*
Y140537D01*
X313660Y132663D02*
Y140537D01*
Y132600D02*
X319091D01*
X313660Y140600D02*
X319091D01*
X311534Y203828D02*
Y209160D01*
X303534Y203828D02*
Y209160D01*
X303597Y209210D02*
X311471D01*
X303597Y194460D02*
X311471D01*
X311534D02*
Y199891D01*
X303534Y194460D02*
Y199891D01*
X317560Y194560D02*
Y199891D01*
X325560Y194560D02*
Y199891D01*
X317623Y194510D02*
X325497D01*
X317623Y209260D02*
X325497D01*
X317560Y203828D02*
Y209260D01*
X325560Y203828D02*
Y209260D01*
X326537Y276700D02*
X331868D01*
X326537Y268700D02*
X331868D01*
X326487Y268763D02*
Y276637D01*
X341237Y268763D02*
Y276637D01*
X335805Y276700D02*
X341237D01*
X335805Y268700D02*
X341237D01*
X242900Y335363D02*
Y341072D01*
X251800Y335363D02*
Y341072D01*
X242900Y335363D02*
X251800D01*
Y345009D02*
Y350240D01*
X251000Y351040D02*
X251800Y350240D01*
X243700Y351040D02*
X251000D01*
X242900Y350240D02*
X243700Y351040D01*
X242900Y345009D02*
Y350240D01*
X271900Y344909D02*
Y350140D01*
X272700Y350940D01*
X280000D01*
X280800Y350140D01*
Y344909D02*
Y350140D01*
X271900Y335263D02*
X280800D01*
Y340972D01*
X271900Y335263D02*
Y340972D01*
X290200Y344489D02*
Y349920D01*
X282200Y344489D02*
Y349920D01*
X282263D02*
X290137D01*
X282263Y335170D02*
X290137D01*
X290200Y335220D02*
Y340552D01*
X282200Y335220D02*
Y340552D01*
X241400Y344469D02*
Y349900D01*
X233400Y344469D02*
Y349900D01*
X233463D02*
X241337D01*
X233463Y335150D02*
X241337D01*
X241400Y335200D02*
Y340532D01*
X233400Y335200D02*
Y340532D01*
X238160Y132300D02*
X243491D01*
X238160Y124300D02*
X243491D01*
X238110Y124363D02*
Y132237D01*
X252860Y124363D02*
Y132237D01*
X247428Y132300D02*
X252860D01*
X247428Y124300D02*
X252860D01*
X365016Y139492D02*
Y144923D01*
X357016Y139492D02*
Y144923D01*
X357079D02*
X364953D01*
X357079Y130173D02*
X364953D01*
X365016Y130223D02*
Y135555D01*
X357016Y130223D02*
Y135555D01*
X211868Y214100D02*
X217300D01*
X211868Y222100D02*
X217300D01*
Y214163D02*
Y222037D01*
X202550Y214163D02*
Y222037D01*
X202600Y214100D02*
X207931D01*
X202600Y222100D02*
X207931D01*
X75209Y278542D02*
X80640D01*
X75209Y286542D02*
X80640D01*
Y278605D02*
Y286479D01*
X65890Y278605D02*
Y286479D01*
X65940Y278542D02*
X71272D01*
X65940Y286542D02*
X71272D01*
X211968Y202800D02*
X217400D01*
X211968Y210800D02*
X217400D01*
Y202863D02*
Y210737D01*
X202650Y202863D02*
Y210737D01*
X202700Y202800D02*
X208031D01*
X202700Y210800D02*
X208031D01*
X230059Y203000D02*
X235767D01*
X230059Y211900D02*
X235767D01*
Y203000D02*
Y211900D01*
X220890D02*
X226122D01*
X220090Y211100D02*
X220890Y211900D01*
X220090Y203800D02*
Y211100D01*
Y203800D02*
X220890Y203000D01*
X226122D01*
X250147Y166092D02*
X255479D01*
X250147Y158092D02*
X255479D01*
X250097Y158155D02*
Y166029D01*
X264847Y158155D02*
Y166029D01*
X259416Y166092D02*
X264847D01*
X259416Y158092D02*
X264847D01*
X243000Y330100D02*
X248431D01*
X243000Y322100D02*
X248431D01*
X243000Y322163D02*
Y330037D01*
X257750Y322163D02*
Y330037D01*
X252368Y330100D02*
X257700D01*
X252368Y322100D02*
X257700D01*
X287700Y194500D02*
Y199831D01*
X295700Y194500D02*
Y199831D01*
X287763Y194450D02*
X295637D01*
X287763Y209200D02*
X295637D01*
X287700Y203768D02*
Y209200D01*
X295700Y203768D02*
Y209200D01*
X341400Y203809D02*
Y209140D01*
X333400Y203809D02*
Y209140D01*
X333463Y209190D02*
X341337D01*
X333463Y194440D02*
X341337D01*
X341400D02*
Y199872D01*
X333400Y194440D02*
Y199872D01*
X244350Y271157D02*
X249007D01*
X235007D02*
X239665D01*
X235007D02*
Y290842D01*
X249007D01*
Y271157D02*
Y290842D01*
X68000Y340700D02*
Y360700D01*
X98000Y340700D02*
Y360700D01*
X68000Y340700D02*
X98000D01*
X68000Y360700D02*
X98000D01*
X76354Y181911D02*
X80124Y185681D01*
X82011Y176254D02*
X85781Y180024D01*
X76364Y181831D02*
X81931Y176264D01*
X86793Y192261D02*
X92361Y186693D01*
X82908Y188465D02*
X86749Y192306D01*
X88565Y182808D02*
X92406Y186649D01*
X25011Y200646D02*
X28781Y196876D01*
X19354Y194989D02*
X23124Y191219D01*
X19364Y195069D02*
X24931Y200636D01*
X29793Y184639D02*
X35361Y190207D01*
X31565Y194092D02*
X35406Y190251D01*
X25908Y188435D02*
X29749Y184594D01*
X39528Y246851D02*
X43298Y250621D01*
X33871Y252508D02*
X37641Y256278D01*
X37721Y256269D02*
X43288Y250701D01*
X27291Y245839D02*
X32859Y240271D01*
X32903Y240227D02*
X36744Y244067D01*
X27246Y245884D02*
X31087Y249724D01*
X185100Y324950D02*
Y360841D01*
X104500Y324950D02*
Y360841D01*
X185100D01*
X104500Y324950D02*
X185100D01*
X135800Y325269D02*
Y329600D01*
X153800Y325269D02*
Y329600D01*
X135800D02*
X153800D01*
X75209Y315300D02*
X80640D01*
X75209Y323300D02*
X80640D01*
Y315363D02*
Y323237D01*
X65890Y315363D02*
Y323237D01*
X65940Y315300D02*
X71272D01*
X65940Y323300D02*
X71272D01*
X99300Y298542D02*
X103957D01*
X108642D02*
X113300D01*
Y278857D02*
Y298542D01*
X99300Y278857D02*
X113300D01*
X99300D02*
Y298542D01*
X118309Y300100D02*
X123740D01*
X118309Y308100D02*
X123740D01*
Y300163D02*
Y308037D01*
X108990Y300163D02*
Y308037D01*
X109040Y300100D02*
X114372D01*
X109040Y308100D02*
X114372D01*
X89660D02*
X94991D01*
X89660Y300100D02*
X94991D01*
X89610Y300163D02*
Y308037D01*
X104360Y300163D02*
Y308037D01*
X98928Y308100D02*
X104360D01*
X98928Y300100D02*
X104360D01*
X365100Y123009D02*
Y128440D01*
X357100Y123009D02*
Y128440D01*
X357163D02*
X365037D01*
X357163Y113690D02*
X365037D01*
X365100Y113740D02*
Y119072D01*
X357100Y113740D02*
Y119072D01*
D14*
X284243Y156548D02*
G03*
X284243Y156548I-492J0D01*
G01*
X222797Y127339D02*
G03*
X222797Y127339I-492J0D01*
G01*
X264507Y267131D02*
G03*
X264507Y267131I-492J0D01*
G01*
X89018Y222629D02*
G03*
X89018Y222629I-492J0D01*
G01*
X227399Y140954D02*
G03*
X227399Y140954I-492J0D01*
G01*
D15*
X222767Y118776D02*
G03*
X222767Y118776I-1181J0D01*
G01*
X79894Y220472D02*
G03*
X79894Y220472I-1181J0D01*
G01*
X218443Y145147D02*
G03*
X218443Y145147I-1181J0D01*
G01*
D16*
X104913Y220472D02*
X110923Y214461D01*
X104913Y220472D02*
X110923Y226482D01*
X137793Y187591D02*
X143097Y182288D01*
X149461Y188652D01*
X137793Y253352D02*
X143804Y259363D01*
X149814Y253352D01*
X175624Y214815D02*
X179513Y218704D01*
Y223654D01*
X176684Y226482D02*
X179513Y223654D01*
M02*
