M48
;Layer_Color=9474304
;FILE_FORMAT=2:5
INCH,TZ
;TYPE=PLATED
T1F00S00C0.02000
T2F00S00C0.02756
T3F00S00C0.03543
T4F00S00C0.03937
T5F00S00C0.04724
T6F00S00C0.06200
T7F00S00C0.06700
T8F00S00C0.07087
T9F00S00C0.07874
T10F00S00C0.11811
%
T01
X102536Y31684
X111400Y28400
X142884Y14100
X162200Y14558
X167800Y18600
X204450Y27281
X225100Y14700
X258000Y25500
X271600Y21700
X294640Y15071
X316412Y24494
X314900Y36700
X248046Y39228
X334600Y73120
X340600Y71000
X349600Y85900
X351800Y99200
X352800Y115400
X327912Y109300
X330081Y103708
X333400Y127288
X344200Y147993
X344331Y164093
X321560Y164271
X315029Y191700
X283300Y205500
X285014Y164553
X298600Y129800
X292364Y106561
X304300Y102400
X321560Y103708
X276600Y107950
X257200Y127955
X260700Y135776
X254284Y145918
X236000Y144100
X222540Y134983
X215220Y119900
X206914Y115400
X223900Y110000
X233300Y114100
X219962Y89363
X208201Y91761
X207000Y84000
X206950Y70132
X202425Y64404
X193246Y73160
X181500Y67526
X170899Y68538
X167699Y92400
X185098Y86514
X188598Y104376
X195026Y134000
X176675Y144300
X175883Y153700
Y164300
Y174300
Y184300
X169500Y188940
Y179350
Y169300
Y159300
X167699Y135776
X187000Y197100
X196041Y202658
X212483Y189300
X254100Y188700
X263200Y79100
X259200Y75000
X259900Y64619
X265941Y64800
X253100
X285014Y66113
X166400Y99200
X157800Y97105
X148501Y99723
X139800Y104075
X131800Y104840
X139800Y119900
X135300Y125459
X130350Y138643
X138300Y149100
X130350Y175850
X118200Y171918
X104669Y165400
X102024Y157500
X88568Y150742
X87449Y124000
Y104376
X90750Y69884
X95982Y74300
X100556Y79000
X109500Y74583
X105524Y69965
X101196Y65495
X96684Y60900
X84495Y65495
X113915Y81000
X110100Y138006
X53008Y145330
X46762Y156114
X42300Y159800
X37900Y173600
X55800Y203500
X82449Y192954
X99800Y196700
X95100Y201500
X135034Y208852
X145600Y201300
X156618Y118092
X55400Y97200
X54000Y89200
X22500Y64800
X46141Y217318
X59356Y218100
X66500Y227400
X67900Y233600
X59356Y238436
X48300Y253800
X25401Y238414
X21114Y289200
X44102Y300451
X80541
X105500Y290728
Y281100
X103100Y261891
Y254821
X93395Y253739
X93800Y246065
X92100Y232000
X102700
X103100Y224574
X112600Y220800
X126126Y225057
X133679Y224623
X128353Y216018
X114000Y240600
X128493Y261883
X130333Y274055
X127801Y286200
X128353Y313483
X134800Y313714
X144800Y313651
X152573Y313714
X105084Y313483
X81931Y264158
X92100Y219800
X156600Y227500
X43815Y337151
X44900Y345100
X23000Y325700
X195700Y318400
X220100Y288500
X228500Y266300
X248600Y261205
X266094Y273694
X274743Y288500
Y303970
X282200Y304030
X292657
X266094Y303970
X321037Y289301
X303300Y336800
X232233Y234828
X206950Y241500
X187000Y220800
X168605Y261891
X339861Y291234
T02
X270800Y72400
X280800
X290800
X265800Y102400
Y112400
Y122400
T03
X73000Y345700
Y355700
X83000
X93000
Y345700
X83000
X124800Y347600
Y337600
X134800
X144800
Y347600
X154800
Y337600
X164800
Y347600
X134800
X195700Y345908
X205700
X215700
Y355908
X205700
X195700
T04
X309115Y315657
Y325499
X318957
Y315657
T05
X308980Y225400
X318980
X328980
X348980
X358980
T06
X335753Y54590
T07
X323430Y42267
X348076
Y66913
X323430
T08
X359500Y201800
X277302Y228700
Y248018
T09
X328800Y296956
Y344200
T10
X15748Y15748
X358268
X15748Y358268
X358268
M30
